<mxfile modified="2024-04-23T09:35:28.800Z" host="Electron" agent="Mozilla/5.0 (Windows NT 10.0; Win64; x64) AppleWebKit/537.36 (KHTML, like Gecko) draw.io/21.4.0 Chrome/112.0.5615.204 Electron/24.5.1 Safari/537.36" etag="H59neMvXHV9hfTnWRB3T" version="21.4.0" type="device">
  <diagram id="Ht1M8jgEwFfnCIfOTk4-" name="Page-1">
    <mxGraphModel dx="1034" dy="511" grid="1" gridSize="10" guides="1" tooltips="1" connect="1" arrows="1" fold="1" page="1" pageScale="1" pageWidth="1169" pageHeight="827" math="0" shadow="0">
      <root>
        <mxCell id="0" />
        <mxCell id="1" parent="0" />
        <mxCell id="CkYmVQg9glZ-AyzhZCAg-18" value="" style="rounded=1;whiteSpace=wrap;html=1;" parent="1" vertex="1">
          <mxGeometry x="9.5" y="482" width="164.5" height="60" as="geometry" />
        </mxCell>
        <mxCell id="CkYmVQg9glZ-AyzhZCAg-9" value="" style="rounded=1;whiteSpace=wrap;html=1;" parent="1" vertex="1">
          <mxGeometry x="9.5" y="295" width="164.5" height="60" as="geometry" />
        </mxCell>
        <mxCell id="CkYmVQg9glZ-AyzhZCAg-1" value="" style="rounded=1;whiteSpace=wrap;html=1;" parent="1" vertex="1">
          <mxGeometry x="15.5" y="190" width="164.5" height="60" as="geometry" />
        </mxCell>
        <mxCell id="-QjtrjUzRDEMRZ5MF8oH-47" value="PostgreSQL RBAC" style="text;html=1;resizable=0;points=[];autosize=1;align=left;verticalAlign=top;spacingTop=-4;fontSize=30;fontStyle=1" parent="1" vertex="1">
          <mxGeometry x="116.25999999999999" y="63.5" width="290" height="40" as="geometry" />
        </mxCell>
        <mxCell id="-QjtrjUzRDEMRZ5MF8oH-48" value="&lt;b&gt;&lt;font color=&quot;#ff0000&quot;&gt;R&lt;/font&gt;&lt;/b&gt;ole&amp;nbsp;&lt;b&gt;&lt;font color=&quot;#ff0000&quot;&gt;B&lt;/font&gt;&lt;/b&gt;ase&amp;nbsp;&lt;b&gt;&lt;font color=&quot;#ff0000&quot;&gt;A&lt;/font&gt;&lt;/b&gt;ccess&amp;nbsp;&lt;b style=&quot;border-color: var(--border-color);&quot;&gt;&lt;font style=&quot;border-color: var(--border-color);&quot; color=&quot;#ff0000&quot;&gt;C&lt;/font&gt;&lt;/b&gt;ontrol" style="text;html=1;resizable=0;points=[];autosize=1;align=left;verticalAlign=top;spacingTop=-4;fontSize=16;" parent="1" vertex="1">
          <mxGeometry x="50.5" y="114.5" width="210" height="30" as="geometry" />
        </mxCell>
        <mxCell id="-QjtrjUzRDEMRZ5MF8oH-49" value="&lt;font style=&quot;background-color: rgb(51, 51, 255);&quot; color=&quot;#00ff00&quot;&gt;Team 1 Users&lt;/font&gt;" style="text;html=1;resizable=0;points=[];autosize=1;align=left;verticalAlign=top;spacingTop=-4;fontSize=16;fontStyle=1" parent="1" vertex="1">
          <mxGeometry x="40.5" y="167.5" width="130" height="30" as="geometry" />
        </mxCell>
        <mxCell id="SCVMTBWpLvtzJIhz15lM-1" value="" style="line;strokeWidth=2;html=1;fontSize=14;" parent="1" vertex="1">
          <mxGeometry x="52.5" y="139.5" width="1060" height="10" as="geometry" />
        </mxCell>
        <mxCell id="NJQEp5nP68rqL0rwDxV9-16" value="" style="outlineConnect=0;dashed=0;verticalLabelPosition=bottom;verticalAlign=top;align=center;html=1;shape=mxgraph.aws3.user;fillColor=#D2D3D3;gradientColor=none;" parent="1" vertex="1">
          <mxGeometry x="23.259999999999998" y="196.5" width="32" height="40" as="geometry" />
        </mxCell>
        <mxCell id="NJQEp5nP68rqL0rwDxV9-18" value="" style="shape=stencil(fZbdcgIhDIWfZm8zQAg/17Z9j85U606tdqz9e/tmZ0c0uJ47xP0I5JwEBl59bp8/1kNwn6fj4W39M76ctgM/DCGM++36OJ50NPDjwKvN4bh+PR6+9i/z74/n6ctp9H74nlb4nbmSKZeJCu5vngmZ6jzzNAO7cX8FVKEsBuBKrgKg9oAE8gkCbLeUhEoEQKSUDZDLeWYRKIl8MEDRmHwfyBrBG6Amyu4+kDxxMoB3jhwgYu7TVAsVkFcWCs4CTBEoF4RctKeOxHIf8IXYpikHikAIf+MNUW94AGSSaoAoFIE3AlOyeWU+p2E5S9yfQZcQILVuQOwZdJNoS9Ls3wA5u2XZTIHECqeJ9kDpSaauRiNVcAY1QhdBzeLBli5WazpkSsBLV25uRaqWRyFawTQzRRIQYirJzq5atkBqLfouwqUxLBepthWb10vrWZY6UOAeyKCCtDV625mm9gmUC4Wc3VLJMMIE1BsA2FW9JraVlQB7n3c9oMKhCLEvIM1zBPZ25/umNQ1tVEC2G+fFCC8g398O2hNQuQlVu752DBfA+q0ptnqO5JFmeuIuo9DY7KjY71UxdJV4EntifPWorW++R/dC4t7V3DlIB5cHx2bc7eb3yvX//QNFp+bHDT/+Aw==);lineShape=1;" parent="1" vertex="1">
          <mxGeometry x="693.2013348659134" y="631.2086254468006" width="4.672539772115215" height="4.665236216357243" as="geometry" />
        </mxCell>
        <mxCell id="NJQEp5nP68rqL0rwDxV9-19" value="&lt;font color=&quot;#66ffff&quot;&gt;&lt;span style=&quot;background-color: rgb(0, 0, 0);&quot;&gt;&lt;b&gt;Team 1 role&lt;/b&gt;&lt;/span&gt;&lt;/font&gt;" style="outlineConnect=0;fontColor=#232F3E;gradientColor=none;fillColor=#116D5B;strokeColor=none;dashed=0;verticalLabelPosition=bottom;verticalAlign=top;align=center;html=1;fontSize=12;fontStyle=0;aspect=fixed;pointerEvents=1;shape=mxgraph.aws4.sagemaker_model;" parent="1" vertex="1">
          <mxGeometry x="633" y="231.5" width="29" height="29" as="geometry" />
        </mxCell>
        <mxCell id="NJQEp5nP68rqL0rwDxV9-21" value="&lt;div style=&quot;text-align: center;&quot;&gt;&lt;span style=&quot;background-color: rgb(0, 0, 0); color: rgb(102, 255, 255);&quot;&gt;Team speficis roles&amp;nbsp;&lt;/span&gt;&lt;/div&gt;&lt;font color=&quot;#66ffff&quot;&gt;&lt;div style=&quot;text-align: center;&quot;&gt;&lt;span style=&quot;background-color: rgb(0, 0, 0);&quot;&gt;Assigned to Team specific user.&amp;nbsp;&lt;/span&gt;&lt;/div&gt;&lt;div style=&quot;text-align: center;&quot;&gt;&lt;span style=&quot;background-color: rgb(0, 0, 0);&quot;&gt;Every team/role has separate schema.&lt;/span&gt;&lt;/div&gt;&lt;/font&gt;" style="text;html=1;resizable=0;points=[];autosize=1;align=left;verticalAlign=top;spacingTop=-4;fontSize=16;fontStyle=1;glass=0;rounded=1;strokeWidth=5;" parent="1" vertex="1">
          <mxGeometry x="532.5" y="163.50000000000006" width="310" height="70" as="geometry" />
        </mxCell>
        <mxCell id="CkYmVQg9glZ-AyzhZCAg-2" value="" style="outlineConnect=0;dashed=0;verticalLabelPosition=bottom;verticalAlign=top;align=center;html=1;shape=mxgraph.aws3.user;fillColor=#D2D3D3;gradientColor=none;" parent="1" vertex="1">
          <mxGeometry x="62.25999999999999" y="195.5" width="32" height="40" as="geometry" />
        </mxCell>
        <mxCell id="CkYmVQg9glZ-AyzhZCAg-3" value="" style="outlineConnect=0;dashed=0;verticalLabelPosition=bottom;verticalAlign=top;align=center;html=1;shape=mxgraph.aws3.user;fillColor=#D2D3D3;gradientColor=none;" parent="1" vertex="1">
          <mxGeometry x="102.25999999999999" y="196.5" width="32" height="40" as="geometry" />
        </mxCell>
        <mxCell id="CkYmVQg9glZ-AyzhZCAg-4" value="" style="outlineConnect=0;dashed=0;verticalLabelPosition=bottom;verticalAlign=top;align=center;html=1;shape=mxgraph.aws3.user;fillColor=#D2D3D3;gradientColor=none;" parent="1" vertex="1">
          <mxGeometry x="40.499999999999986" y="302.5" width="32" height="40" as="geometry" />
        </mxCell>
        <mxCell id="CkYmVQg9glZ-AyzhZCAg-5" value="" style="outlineConnect=0;dashed=0;verticalLabelPosition=bottom;verticalAlign=top;align=center;html=1;shape=mxgraph.aws3.user;fillColor=#D2D3D3;gradientColor=none;" parent="1" vertex="1">
          <mxGeometry x="135.26" y="196.5" width="32" height="40" as="geometry" />
        </mxCell>
        <mxCell id="CkYmVQg9glZ-AyzhZCAg-8" value="&lt;font style=&quot;background-color: rgb(51, 51, 255);&quot; color=&quot;#00ff00&quot;&gt;Team 2 Users&lt;/font&gt;" style="text;html=1;resizable=0;points=[];autosize=1;align=left;verticalAlign=top;spacingTop=-4;fontSize=16;fontStyle=1" parent="1" vertex="1">
          <mxGeometry x="33.5" y="272.5" width="130" height="30" as="geometry" />
        </mxCell>
        <mxCell id="CkYmVQg9glZ-AyzhZCAg-10" value="" style="outlineConnect=0;dashed=0;verticalLabelPosition=bottom;verticalAlign=top;align=center;html=1;shape=mxgraph.aws3.user;fillColor=#D2D3D3;gradientColor=none;" parent="1" vertex="1">
          <mxGeometry x="76.49999999999999" y="302.5" width="32" height="40" as="geometry" />
        </mxCell>
        <mxCell id="CkYmVQg9glZ-AyzhZCAg-11" value="" style="outlineConnect=0;dashed=0;verticalLabelPosition=bottom;verticalAlign=top;align=center;html=1;shape=mxgraph.aws3.user;fillColor=#D2D3D3;gradientColor=none;" parent="1" vertex="1">
          <mxGeometry x="114.49999999999999" y="302.5" width="32" height="40" as="geometry" />
        </mxCell>
        <UserObject label="&lt;b&gt;&lt;font style=&quot;font-size: 15px;&quot;&gt;.........................&lt;/font&gt;&lt;/b&gt;" treeRoot="1" id="CkYmVQg9glZ-AyzhZCAg-12">
          <mxCell style="whiteSpace=wrap;html=1;align=center;treeFolding=1;treeMoving=1;newEdgeStyle={&quot;edgeStyle&quot;:&quot;elbowEdgeStyle&quot;,&quot;startArrow&quot;:&quot;none&quot;,&quot;endArrow&quot;:&quot;none&quot;};strokeWidth=0;opacity=0;rotation=90;" parent="1" vertex="1" collapsed="1">
            <mxGeometry x="81.25" y="402.75" width="9.5" height="10" as="geometry" />
          </mxCell>
        </UserObject>
        <mxCell id="CkYmVQg9glZ-AyzhZCAg-17" value="&lt;font style=&quot;background-color: rgb(51, 51, 255);&quot; color=&quot;#00ff00&quot;&gt;Team n Users&lt;/font&gt;" style="text;html=1;resizable=0;points=[];autosize=1;align=left;verticalAlign=top;spacingTop=-4;fontSize=16;fontStyle=1" parent="1" vertex="1">
          <mxGeometry x="26.5" y="458.5" width="130" height="30" as="geometry" />
        </mxCell>
        <mxCell id="CkYmVQg9glZ-AyzhZCAg-19" value="" style="outlineConnect=0;dashed=0;verticalLabelPosition=bottom;verticalAlign=top;align=center;html=1;shape=mxgraph.aws3.user;fillColor=#D2D3D3;gradientColor=none;" parent="1" vertex="1">
          <mxGeometry x="14.499999999999986" y="490.5" width="32" height="40" as="geometry" />
        </mxCell>
        <mxCell id="CkYmVQg9glZ-AyzhZCAg-20" value="" style="outlineConnect=0;dashed=0;verticalLabelPosition=bottom;verticalAlign=top;align=center;html=1;shape=mxgraph.aws3.user;fillColor=#D2D3D3;gradientColor=none;" parent="1" vertex="1">
          <mxGeometry x="50.499999999999986" y="490.5" width="32" height="40" as="geometry" />
        </mxCell>
        <mxCell id="CkYmVQg9glZ-AyzhZCAg-21" value="" style="outlineConnect=0;dashed=0;verticalLabelPosition=bottom;verticalAlign=top;align=center;html=1;shape=mxgraph.aws3.user;fillColor=#D2D3D3;gradientColor=none;" parent="1" vertex="1">
          <mxGeometry x="86.49999999999999" y="490.5" width="32" height="40" as="geometry" />
        </mxCell>
        <mxCell id="CkYmVQg9glZ-AyzhZCAg-22" value="" style="outlineConnect=0;dashed=0;verticalLabelPosition=bottom;verticalAlign=top;align=center;html=1;shape=mxgraph.aws3.user;fillColor=#D2D3D3;gradientColor=none;" parent="1" vertex="1">
          <mxGeometry x="122.49999999999999" y="490.5" width="32" height="40" as="geometry" />
        </mxCell>
        <mxCell id="CkYmVQg9glZ-AyzhZCAg-23" value="&lt;b&gt;Request Access&lt;/b&gt;" style="edgeStyle=orthogonalEdgeStyle;html=1;endArrow=open;elbow=vertical;startArrow=none;endFill=0;strokeColor=#545B64;rounded=0;fontSize=14;strokeWidth=2;" parent="1" edge="1">
          <mxGeometry x="-0.037" y="20" width="100" relative="1" as="geometry">
            <mxPoint x="175.50000000000023" y="514.5" as="sourcePoint" />
            <mxPoint x="295.5" y="514.5" as="targetPoint" />
            <mxPoint as="offset" />
          </mxGeometry>
        </mxCell>
        <mxCell id="CkYmVQg9glZ-AyzhZCAg-24" value="&lt;b&gt;Request Access&lt;/b&gt;" style="edgeStyle=orthogonalEdgeStyle;html=1;endArrow=open;elbow=vertical;startArrow=none;endFill=0;strokeColor=#545B64;rounded=0;fontSize=14;strokeWidth=2;" parent="1" edge="1">
          <mxGeometry x="-0.037" y="20" width="100" relative="1" as="geometry">
            <mxPoint x="174.50000000000023" y="325.5" as="sourcePoint" />
            <mxPoint x="300" y="326" as="targetPoint" />
            <mxPoint as="offset" />
          </mxGeometry>
        </mxCell>
        <mxCell id="CkYmVQg9glZ-AyzhZCAg-25" value="&lt;b&gt;Request Access&lt;/b&gt;" style="edgeStyle=orthogonalEdgeStyle;html=1;endArrow=open;elbow=vertical;startArrow=none;endFill=0;strokeColor=#545B64;rounded=0;fontSize=14;strokeWidth=2;" parent="1" edge="1">
          <mxGeometry x="-0.037" y="20" width="100" relative="1" as="geometry">
            <mxPoint x="181.50000000000023" y="219.5" as="sourcePoint" />
            <mxPoint x="301.5" y="219.5" as="targetPoint" />
            <mxPoint as="offset" />
          </mxGeometry>
        </mxCell>
        <mxCell id="CkYmVQg9glZ-AyzhZCAg-32" style="edgeStyle=orthogonalEdgeStyle;rounded=0;orthogonalLoop=1;jettySize=auto;html=1;entryX=0.225;entryY=0.231;entryDx=0;entryDy=0;entryPerimeter=0;" parent="1" source="CkYmVQg9glZ-AyzhZCAg-26" target="CkYmVQg9glZ-AyzhZCAg-29" edge="1">
          <mxGeometry relative="1" as="geometry" />
        </mxCell>
        <mxCell id="CkYmVQg9glZ-AyzhZCAg-26" value="&lt;b style=&quot;background-color: rgb(51, 51, 255);&quot;&gt;&lt;font color=&quot;#ffffff&quot;&gt;Authenticated by Team specific Role&lt;/font&gt;&lt;/b&gt;" style="shape=process;whiteSpace=wrap;html=1;backgroundOutline=1;" parent="1" vertex="1">
          <mxGeometry x="300" y="190" width="140" height="60" as="geometry" />
        </mxCell>
        <mxCell id="CkYmVQg9glZ-AyzhZCAg-31" style="edgeStyle=orthogonalEdgeStyle;rounded=0;orthogonalLoop=1;jettySize=auto;html=1;entryX=0.225;entryY=0.414;entryDx=0;entryDy=0;entryPerimeter=0;" parent="1" source="CkYmVQg9glZ-AyzhZCAg-27" target="CkYmVQg9glZ-AyzhZCAg-29" edge="1">
          <mxGeometry relative="1" as="geometry" />
        </mxCell>
        <mxCell id="CkYmVQg9glZ-AyzhZCAg-27" value="&lt;b style=&quot;background-color: rgb(51, 51, 255);&quot;&gt;&lt;font color=&quot;#ffffff&quot;&gt;Authenticated by Team specific Role&lt;/font&gt;&lt;/b&gt;" style="shape=process;whiteSpace=wrap;html=1;backgroundOutline=1;" parent="1" vertex="1">
          <mxGeometry x="300" y="298" width="140" height="60" as="geometry" />
        </mxCell>
        <mxCell id="CkYmVQg9glZ-AyzhZCAg-30" style="edgeStyle=orthogonalEdgeStyle;rounded=0;orthogonalLoop=1;jettySize=auto;html=1;entryX=0.408;entryY=0.796;entryDx=0;entryDy=0;entryPerimeter=0;" parent="1" source="CkYmVQg9glZ-AyzhZCAg-28" target="CkYmVQg9glZ-AyzhZCAg-29" edge="1">
          <mxGeometry relative="1" as="geometry" />
        </mxCell>
        <mxCell id="CkYmVQg9glZ-AyzhZCAg-28" value="&lt;b style=&quot;background-color: rgb(51, 51, 255);&quot;&gt;&lt;font color=&quot;#ffffff&quot;&gt;Authenticated by Team specific Role&lt;/font&gt;&lt;/b&gt;" style="shape=process;whiteSpace=wrap;html=1;backgroundOutline=1;" parent="1" vertex="1">
          <mxGeometry x="295" y="483" width="140" height="60" as="geometry" />
        </mxCell>
        <mxCell id="CkYmVQg9glZ-AyzhZCAg-29" value="" style="shape=curlyBracket;whiteSpace=wrap;html=1;rounded=1;fontSize=14;" parent="1" vertex="1">
          <mxGeometry x="512.5" y="182.5" width="20" height="360.5" as="geometry" />
        </mxCell>
        <mxCell id="CkYmVQg9glZ-AyzhZCAg-34" value="&lt;font color=&quot;#66ffff&quot;&gt;&lt;span style=&quot;background-color: rgb(0, 0, 0);&quot;&gt;&lt;b&gt;Team 2 role&lt;/b&gt;&lt;/span&gt;&lt;/font&gt;" style="outlineConnect=0;fontColor=#232F3E;gradientColor=none;fillColor=#116D5B;strokeColor=none;dashed=0;verticalLabelPosition=bottom;verticalAlign=top;align=center;html=1;fontSize=12;fontStyle=0;aspect=fixed;pointerEvents=1;shape=mxgraph.aws4.sagemaker_model;" parent="1" vertex="1">
          <mxGeometry x="634" y="302.5" width="29" height="29" as="geometry" />
        </mxCell>
        <mxCell id="CkYmVQg9glZ-AyzhZCAg-35" value="&lt;font color=&quot;#66ffff&quot;&gt;&lt;span style=&quot;background-color: rgb(0, 0, 0);&quot;&gt;&lt;b&gt;Team n role&lt;/b&gt;&lt;/span&gt;&lt;/font&gt;" style="outlineConnect=0;fontColor=#232F3E;gradientColor=none;fillColor=#116D5B;strokeColor=none;dashed=0;verticalLabelPosition=bottom;verticalAlign=top;align=center;html=1;fontSize=12;fontStyle=0;aspect=fixed;pointerEvents=1;shape=mxgraph.aws4.sagemaker_model;" parent="1" vertex="1">
          <mxGeometry x="638" y="489.5" width="29" height="29" as="geometry" />
        </mxCell>
        <mxCell id="KQhJbLYP4OwqPiLoFDpy-2" value="" style="shape=datastore;whiteSpace=wrap;html=1;" vertex="1" parent="1">
          <mxGeometry x="850" y="191" width="240" height="399" as="geometry" />
        </mxCell>
        <UserObject label="&lt;b&gt;&lt;font style=&quot;font-size: 15px;&quot;&gt;...................................&lt;/font&gt;&lt;/b&gt;" treeRoot="1" id="CkYmVQg9glZ-AyzhZCAg-36">
          <mxCell style="whiteSpace=wrap;html=1;align=center;treeFolding=1;treeMoving=1;newEdgeStyle={&quot;edgeStyle&quot;:&quot;elbowEdgeStyle&quot;,&quot;startArrow&quot;:&quot;none&quot;,&quot;endArrow&quot;:&quot;none&quot;};strokeWidth=0;opacity=0;rotation=90;" parent="1" vertex="1">
            <mxGeometry x="581" y="417" width="150" height="10" as="geometry" />
          </mxCell>
        </UserObject>
        <mxCell id="KQhJbLYP4OwqPiLoFDpy-1" value="" style="shape=image;verticalLabelPosition=bottom;labelBackgroundColor=default;verticalAlign=top;aspect=fixed;imageAspect=0;image=data:image/png,iVBORw0KGgoAAAANSUhEUgAAAHwAAABwCAYAAADc3BTFAAAAAXNSR0IArs4c6QAAAARnQU1BAACxjwv8YQUAAAAJcEhZcwAAFiUAABYlAUlSJPAAAFNcSURBVHhe7X0HYFzFtfYn7a5Wq94lS3KTe8Pdxhgb04ypodcASSgJNUBeykshhcALkJfQEgKEEgIBYroTugvY4IK7ce9Vxep9te3/vnP32otxCBBD/p/8R5qduXOnnDltzsxtSTECBIqSkhjb0cFBp1kuieViH1OQxT4MKqpMq8JEEmvH0x/uMsoDFWS8r9LBweqxiGIHnISDn2KnbbUTiyXbucQ23WELNJ6PA5V1ykdZ1oNka85ty63rtBeNumMTHsk2nGSWiXHMUdXf9+eUUf2D9y4KO+cUR+NH+nVy9tdzcvZjYiAkXCLFTwqX/Qw/xOAi8NHGhQCRjWPndu8QlcOyis6wxAiXGc75/cQUuOeVl5ysmPX2ldd5lVMdEn5fvSSWJQvi5VxI7F9pAxbxJnst/iiorIuT04/Hw7JkbyLwLCLhiNMGTylymaVzTop5No79+O8/6zDZZbhzhuX5wyGzjtPmx4GVUVmGz43h0lENPbIPcXajnuJIIsozDM74yASPjwM4GOpqSfBhQiZCJBKxIKYnJ0sDRbwogsFOeL1eBn+8pAsxhEJhhMNhI7BTRsz6KIQjYVRVVaG6ai8q91Rix86tqK2rRWdHBzo7g9Ro9t0VMooW5OUhPz8fJd26oaysHCVlJejGdGpqutNWOIRINIwUXyqPqPGsKxAOEsJoNGqxA/+E4SSLinKYxvz4KSfWcQLQ6DjCIYH7vBju4qDOokwkK2ZXjgTHECbBYxx8ampAxcmcLuzasR0b1q0hYfegubUFzc3NaG1rM2wzMzKQkZmFrKxs5JGoBfmFKCgoQHFxMfJIaBdisYjDhEgUKSkOYbdv24pNmzZj89at2L1rD2pqatDU1EiGdRo+mZnpyM7JQX5ePkrLS9C3ogJJ1Na1q9dg/sL3sWH9Jmzdsh3V1bucTj4B5OZmo2/ffhg4cCCOPfZYjBw5EkOHDDbBDoe7jLkSMpF/P5NJM6OP4FNouGXYqfhJJynQoZv3BZh0zVtMJyLBtI69wpawc/sOvDzjZbw9czY2b96ETVu3kNmtdu4fgc/nQwYFIIdMKisrw7Bhw3DYsCEYPXqkpVMDEqJkvP3OHPztpZewYMFC7Ni+E3uqa43Y/wyyc7KMCQ31jfEc9ZmBsvJuKGcoKSlARnoAaf40xGglxDwJWCUFqbKqBg0N9dixYyciUj+CGFteXorjjzka515wIY46+ij4PH7Wo9CTGI6Gk6nSVjElrhSfiuEJ+WKsGUS1x1hY6NA5/7kyXFrtoKrjcCgEbxLNpy8ZW7Zswz2/vQvPvfA89uzeZQMSUun+dPSq6IXMrCwE0gK0AKmM06yx5qYWtLa3orGpCfW1dWhtiVuAOOTmZLBuBcaNG4fOtk4K0gw0NDbZuQDNaklJKXr07oXSbsUoLKaFyM/jvOtBG9toaGhETXU1zXclqmsq0dHWSiaVY+LEKRgxYhwGDB6CHt2L2U4KvLRKKV4PxyIzLAorRNEVCtLUB8n0WlqErVi/fj3emfcO5jLUcxoQZGdn4hhq/Pe/912MHzvOphZvip9NyCHkMPljTCTnPhXDnVP7CR8HHbrx56zhRJAtm4ZrEJqfbDAxPPHEk7jl57dg85aNVjYvNw8TJkzEiSecQA09DEWc94oZsrLS4UlAXtDZFSWjm9DY0IC9e6uwZvVaLFw4Hx+sWYtN27agrrqG7oGjWYLikjKc8pXTceyUo3HU5EkoIqO9BzaaAG3tnRSmajpaYWRlcwrJyWV5Lzp5LkTmtodiVkbnNV9FGOSFB1J9SKMwpPm88NMdcI10RzCGdevX4qUZr+CJPz2KzRvXWH5uXjZ+8N3v4VtXXU3hzjS6mGKLrXH05NObh8/wTxnODt180/A4WB6DS5HPVcPVjcgRlUPFoxCJdOdv/he33norNbCdzCjGBedfiNPOPAMTJk5EanwuayF27a1BtHW0o4sOUThM8SGamWk+BERQan1muh8eK+1AC63H9q3b8P6C+XjzzZkUhFWoGDgI113zbRw9cZyVkYvU0NCKVvoHLW1hNDW3IkINS/GnchrwItXvR3ZGFjU/g46VVUGYPgHRxwaa91dnLsOChRvQ1NrOcYnZMuUhEt6DHFqkrPQ01vejd89y9O9TirLiAPqUdkNOarIJTFVlA/7y9NN46Pf3YNumddb+KSdNxU9v/glGjR5LRjmrBy3njEU65p/LcId1+xkruZWBkX+kU2Kq0hGmHW128gVKqtVDznC3Dzlo6iDCWF2Il7fc8kv88pe3mmmfOPkI/OIXv8QREyfBxzmuhWWXrduDVWu2cL7dS+1tQnNjCzrpaUdJdB9NaGoghczxIp3MllMkj7hHjyKa6ELk5OZjQD6ZxnY6iERNTTV8mdkoSkvF3g7g/bU7sOj9lea0NbLdIB22UIjzuYk+yUrvPi2QTgewwJzBkqJcDBnaE0OGlaKAuAu/VWu2Yv78LZgzdxlqW5uQmp2HLnqkkSQ5YhGEgx3wRNqR6onCnxylgAbQv38fHDVlPMaPrEB+CsB/LF27EXfdeQee+tMfrf+Rw4fhjw/8AaPGH2FjFRFFryi5ZlpM/ISmmC/aGo35I0sg7iVquH7EbKVV1gU7RzikDHc7cRokioalJDYJDzxwH2644b9sKXPyV07FXb+9G31794bcs6Wrt+PZ1+ZizRZ60LWt9OoDnAJ8RE4iw/ZIhCRSIIoQ58yQMyCOUktkP7UylXN8EefvQd2zcfzoAZg4YiA11GNtvzRvPf42ewW27q5FG6cCL73kSMQVQvoT0iJ24yGOmgnkfHWReZpDMzNSiGMuxo3ojUnDB2FMeYFp6qrN1Xh2xrv426z5iKTmwpORgyQvceY87I0G4Yt2IZkhTIESdTMy0lFWkofJk0fh9ClDUeRLosC0475f/wp33PYrCl4IE8aMwIOP/glDhx7GsXPJGudWMpHTJlKU67Bk/om5OmdMdiFOeJHb1XAdW5l4O27S8zOC5RwCUIP7+mDC5m6OeNnyxbj+muu4fm3AKC5P/nD/gxjQry92NHbh728tw90PT8cHG/eiLZIKT1o+vGk0qWRiSpqfaS88nBuTSCSv38fgR0qA56iN8KSgi+23c0lXzTVysL0dR44fi4rSHFTTafvdn2bgyRfexu76NhKB7dgySJRIpqNE50trbw+JyLlBuJL7bNKLlFQv82I0/c2o2rMXa6nZa9bsQGs4BcVlhRhcnInBA/pxjgqy353oZL9eOn8SbrUfo7WIxTzUfvaTmoF2CtGm7du5PKziNBVFcQ9akKw0HDd5MnKy07GUPsj6LTuw+P1FmEJPPp9LzjA9eA/biS+eycy4fvNfNBYIZaO3fqQbPDZwy7jHBLfOIWW426ggcc1956/vwOuvv4XczEzcTc2eOGkimjtjePSvc/Dks6+hrYsOT143MjUdIQ6wiwQKSUNiXbZRwZlSLbI9Z9ia66LUzmQyzMfJNinciWI6Qd/99iU4cnA3NLQEcf9D06mBC9Ac5RSQVeQsediK6JJM5mh2FKhN4eiQVJrP45gcMk4jvhQ6Y5ms68PeulYsXv4BNmzZjfxuRehXno1JowZwasnHlk2c15uaKSwBRIiXmK2ePDT1oWCIsRcFeUVo4XJzydJl2LZ1J3r36I7y/EyMO3wCp6g0vPfeu9iydTv9igacOO0k4igMqdOOTTdQjmHNHwf7D/HUAZZVXpz0FieWPSQMlxY7ywln3hZ+0hiZyXWbNuJ79EZbW1pxxdcuxbU3fJsMTcKrczfg6ZfeQihJWp1pjA6rHS3jbBuJCNpAHYbIwzcSsJxYE9WxlwQRczqbcMmZJ+C0w/uag/fgYy/grTmLaWoLuB7LpfA4OBmzZb/VsDLYhphswCnDzqs7A+GvvrRz56dgBeChhams2Y3Z899BCpdXh/Xujv69SxDwZ9AT30JHMARw+ScX1Us8U9i0n2NlbXr1NMk+H5mbjlou+1auWIp+gwchPzsDE8YfznaruNpYhJ07d3EpOAF9evfl9KKdQIeiwpvoGt4WC4Sr0m6+km7MH5l3xTpWK278L4OryRYzuMxXePnFl2gWq9CtMB8Xk+Feas3WPZ3468tvoLlLFEmjuaUJ1KA4gmQy26vAwZiesC0LJgzqTAPhj5ZEwSBa6+swYkhfnHH0SGgD85nXFtCbfpfTADVThGY97UMahkpTcyVPYrXaVJPO1KNAPJjWGOR589eCysjGRHjeE8jGXk7k//vwX3D/jNnooLyddcJoXPf1c1CQSjMcaaOgcA6HHEIyTBpqnZPUUQ+tBYUhkIU9dS24/9EnsblyrxDDOeddgNz8XFqBFqxe4yzdhIfhLNw4XiXVlsUCtStw8xODst04IRwShhtS7FGxdp20DqY3aIx/e/Zsi48+5lgMHzXGhPKl1+dgw7ZqG7iYHWadGDU1ic5ZMrkqRkhzPdR2h9EarJwXpjlw+aw0nEiKBJHmT8KZJ08FV0CYv343nnrqOQRpSqO+NIRteKpv7CIesh4SGNFS+RIo9UVtJiNMoChmsZhjlmNKq5zVYxtMB8Ncc2eXIxooxWPPzcLdT72G2s4ITpw0CFdefDI8oXr4YmQ62lm+i5aI3jvrySIZjTjeKNv3Z+Vh8cq1+Osrb6GOa/vBh43AmLHjOQWEsWLVSoQiFBppdZyuScTR8GMz1pTA8CXEj50ePj4cQoYLKUero5x/PZTsXZW76bAts7zR4w7nksqPXbURzF2yDt6MXFvOyDO2wWgU5IT+jBnETIM1DbMDB121JS8WsSDQ1Y7xIwZh6IACVFPTXnl7CZpoNfw5xfSmnXle9VVXeipGK4iJ/OG/iMhzbNMIon5VI46PBZ7TSZ2zMTIv1MV2k/MQ9hXgudfexbNzlkI+26nHjcaJx41DR9NuCqJGwlUFOwyxfoT1xfQYl3FRCm+IAhZJTsXKNZuxpaaJS8IAho0Zzz5gF2naOjqM4cZs1VP/QtJBwwEdf0o4JAzXksmNnUuPJAiRlSNSW1OLAAfTl145scfcpWtQ3Uyb6JeDJtw1kPhgjMAJxHaD8vgndlBPqd+qGOaatgtTJoxBYUoytu2ux4oPNsIXyEcnnSy6XCxlCxlqL00xNVbzvwOKnX7FT3Vumsw/5bvMNUFm/8LRlkZWIokazHJdZHyMq/70Qvz5+Tfw1LxlVufCM47GwF7F6Gjdy3kf1O4IGcvph13GGIvpEdKmkwLqpe9S29SOaq5ePOyruKS7kEEnl3N2cUn4GS7sz2KCg5oD/zaGx3/3SSNj0WrF8hV0PCIoLMpHnz69Navhg03b0dwRpGl0zKvNnzYeh6hqTHXtWExgWo6UYpFegiSFD3d2ol9FDwzqU8S5FZj37ko6Pk0snM6pk557UgoZLEbTWzZzLRPNilqDGY7qxybzeH+6kCtaMsNSjmMYz7Rch/l0wjimVE4nLICwJw17g0n44/Ov4O1NO9GPTtg1V16MLH8quoJtXJ+rHmvR4jljlaAkkRbEiQ5eU3sQjc0d8DG/W1E39cJ2NfEJL1fE4rQRKIonDbdPCYeE4aYJYhDTWo4ZBXlUW1dv54uLS1BSUoyaziTUNAU5d6fyLIcsgktvVJcDdjTL6Oocc5BiusxiVLGVAVJ8XvbThT69ytA7P4C6lhCtyTKkpGTRZPIc1SmZGu6JcOnGAM6ZipN4jo0xlolnsD6c/iRFLi3NgeOfzjn9Cj8Rn0KhvGSqZ1KYzmUQ0WAr0tPSUb23DS+9Op/Mj+HIfuU4berRSG5tQ0pnFz12tmqNK3bGJafQ79X2sMeuHGrkudk5/CVTiIsspUNRUdKp+hE4WN4/gUPD8PhAFIvhHq0hme6iFgsKCgsQIFGaWyOoa25lWS52vA6Dbf4UQVnOGbYDluKPzphps7NsV8ShOU+lGR86sCeySZgtW2pRU9viunK2HIyZc6A24nOyBdYX8Qm2plffrOGUIyncpOqrJRNECRwdUcVWj04YjURIxoJC6+VxjKuFQGoulq7YjncW7bbxHDdxPAaV9wBam+HnscTJFEOd0JrYko1HitP9jrB1hjr4C6SRVj4uAYWqWU3VVb1DAIeE4UZCIWYDopkjZYSotgwFubk5XKsG0N7RzrUqGR4LIYVE05YpqeMQV004LRlYij8arMMkS1leR1sbsjPS0Kus0PpdtWYT2rrCtukRTuac6aHmeTgHesgMru9izJO3HKNWylvX8k99Clv1aWmeZ0eW5wgC9VlLKqM6PWvVoubpMMpjW11w2uD6j30FKACpdNG8ePlvs7C7LgkDS9Mw6cjh5sxxOYFkD1u0uhIb9hMOoaulBRl0ZPPSU6zfvXu5RCMUFBfR6QsQD0dxhJWN/RDAIWG4gUMpS2rtG2YySMkXZGRmG+JRLjUiwU4Wk3k03lkddyj/cEg84TgvHDrnt1BXJ/JzMylIuehgu7urquDxUV+YlikUn7QGjkSD9CHoINKj93ppgsn4GIXN9ubZnJhnYsSE07yIa90Q1IhDamFrWfpltq7+aTzamu3s7LBxtrZ1oI3CvG7dMsye/R7LxTBx/GHo3qOE57lM47Qk3NWf7fNxeRlmvfRUL7Lo1GrTqa7eYXhZ9zJaKfocKr+P4YcGDh3DiZiRj5GXRJdZlbkWeL00T0z7KO4+r2M6pZnSKg3G1r5W0vk9GIgpMrV2/Zlxt6IiFGanoDUURV0t174iYpDMbO1ApKUdSXSDyWM6bLrnrA1dnfV0ohqpYTKbWpcThJ+Yzbpy7Jw0QYPgOdeki3maUanXLBdCKi1HJqeUtoZKrgwbUZKXhYqSQgztX4H+/XujZm8V8Uqij5GDin7d0NGp6YYuKy2MxEe0sH18dpOZnob0jHRaC2DP7j3qHD2697AyunLmWhuHTv86HEKGCyEixkgapg0N3YYkSCaTHBCzZNY4GG2g7JtTXQl2fg8GaleMEMNlJQtzMpHNzKode7B39zakJLWiNDcJR43pi8sumIrvXH8qbvz2qfivb38F1111Oo46chQyUoJIDjWzN11xc7RNaIu47p86smOi4jiOwtEhlGIvrZM31IqktkocO3YIbrnxa7j1hnNw6/cuwq9+dDF+efPVOOecEyj0TjslhbmcUmi+w102OuuXjZkSUIOzs3Lo9KUhGEmye+jSM9PRvXt3w802pCR8qme1LfEvwSFhuOEgDTS04gTjsZ9LE4HmcpkmnzRfsyHTdJRZxdGqTzIKlTKNo9Srfl5uBmfMJHQ2N6C8OAeXX3Q6fvr9C/Bf156My88ahTMn9sNXxvXBqWP74PTJA/GdK07Ef99wGfpXlFHjdOFUQkftJz5s1IKtEsRkduaaeXPgZF5Nx3kcCSPbE8IVZx6HW64/D1+Z2BdH9MpFRVGKOWApAS+KCtJtzk5h3VKuTuR1hzkNqUF1paWlLo6EuoIoKsxHBuu0NDVj9eqVdudr99Jy0sehk5ARPYWLgQjxL8AhYbjLMjVmzLRRyVlz7iatkTNCCc/LzEQmzZfX6+xT2/LHRuIMStUEbpwIkgsLIj2XZZrDdVzEFcAtP74GXz11HEb1KIKfhF65uQbTZy7GnY++gPufm4V3VmzjHBnCsSN64IpLTidRc4ijHDh637QYNlWIsJJCHcvHkDkVg/gnYbXr8Tyn6eryc8/A174yhSsF4O0le3DL76bj5pvvx3/ffB+u+eHD+M6tj2DBKueOliCXZam+FLt/Tn1Kc/UnJfCQDv369kCAfWzdtAG1u3ehvKICZd1K7YYK28RSI/qxBOEgtPk0cMgYTpo4WsGEIUqu6dq3z5+GnTt2obq6hs5bMgrzc62MbIERkvVMgi0tYivttOuARiim6FczIJd0bF9ElL9bVtoN2RSkZZsb8esnFuCbN92F7/7odjz7wt9Q29CAjZvX46/Tp+P+B59EXWsrxg4sw8nHTqT8cZ5nf8561wGLJW0MthRkEHPcpaauew8aUIGjxo+wGyX+/PxiPP3cKxg6bCguuOhcfPVrl6C2JYIV63bAxzq06mhqpPmnyxDWPXAag1YnnNeCXV0oLihCrx7dqCTA6lWrKHBhjBw9kvN6BqeukIOb0YMFXJq4yH5GOGQm3egUZ5gypDXDSAjdSlxZWYmdeyoRIAWK8nMQ4ZKEJeO0dRjvaHhC2mmVQVRyRqs88w/Iann6grrGZtz3yBv47s8exhMvvYddDT40hNIwZMQY/PSmb+Bn37sKv/jZd5GTm40357wPbflMGFZOM+pHOMQ53RNfX1vrTo/Wq3AxKpPgxEcaGSXTBg/sgaI8H3bvbsTzM15DaY/emDx5EIYPyKdwJ6O9s5POKT3vrCyjR6vd/wa0U1iMcTbOqNGge/dylJcX2s2RCxa+j5T0gN1sqQq2o8hgDCcujBxwSPGZ4ZBpuMCQ0xGRk/nLzc9HYUEBmnRbcX0THR7Qu86mkyyHyXHeZEadYBn8lxerVmyCYGBJCYG0kcGvDWqZ3YjjvL27eC2emfEKajvb4c2mZgS4pvWmYnd1Mzbt0lxN7WLb7SEvFq1aj0quFKVVA3oWISmkCxTCRetyCRu7okQ5cycrGpGVL3MeRRo1L5/j0Tg301lsC8WwcPlG3HHva7jz4Tm476EX0djYZDdn5nDaaKfrXV/fSE3V+CSkHIM1TISoweXlBSjOTMHOqjosW/I+snKyMXr0KJ6N0t/xsqwQcMYulD4CrhB8CjgkDBc4NCJyTHu49BJR8jmAMaNGoa29FevXr7VCPUpLkBlINQnXjpvA1S07IjPNvLvMVuDpZNsPl7Oja8pai8tKaMfLB09GNlKy0hHkejucFLKt2w827MSP7ngc3/ufv+D2e57F39+cj4276xHULUYBD0rz6PSJ2RJSCZ5ZF6Go2Aazj+Fik1fbuVx/q19h10l8PP5MNLa24Y13FuCFV+Zg955qTjcpyKfjlZmRhqb2KOobmp02yXSbQtQ229HytILa7Wff61atxaZ1azHqsOEoKy61Gx90tVGWTcUtVuSQyYkFyvyUcMgYLiQ0MOEi9KgUlGxg7OHjjPkLFy4w/Ab26Y78/Gx0yWs1bZZzJA1zgnnK8bRpgoIGzKB2tOkigrTIRPKsz5+OJGq07Z3Tb/fEdOnSizDNak1DExas3IBFK1cj5g+gsT3EvBYjcveSfGvPlodEVLiKmsrjj1KmWcrTVqg8bVmf+qZWdDA/N78YSR4f+05BKpdWmdnZdoOk5t1spgNkWHNLqz0ypSdQ5HdoHOpGT6uUdyvCYUMGsPUkvDN7Djra23DeeefbeUNFnGbXiozp8SwN2uI4ahY+BVjbhwIMPxLKYsNCDAL69u1r53ds30bzVo/ybA897DTykYzWCXk2xuh4Gy6RDxiNY9ZofKkd5BIinFN11m5zSiKhdYFE++Fs1ZvsgcfnQ9TrRXpuLtKy8uile7kWTkJl9V6WSEIB53Rtftjmhv6sfwcJ+R/uHO6MJWZOmu6r31vbgjZOQTn5GUjn9CEhiNiUJOENm/nO5ZLRzzqt7R1o6Wg1IUjRDZedQWePn0MYNqg3epdmoK65C+++NxflpWU47eSTrbckWjETPA7H5E90MRp8OAjc+JPCIWO4wAhGzMyEGeZJGDxoMAqLirBp82Yyfatd9+3ZvYwOUIdtN2r+1KhUR+ZOOaxof9aYYo7KOSbCNOEqK2bprEy8poYoTbndC8f25BTZXTc819UVRXuHbjXSfWVAfW2DESk9Lcv2CchvHjuUlVkXyITLQxAu+jNLQEGLkXGbd9SgpbULPUv8GDGkH8hFlbD6yRIeltH96KpH9nLKIa52h6zzZIPuk0viEnH8mKFIZ52Vy5big1VLMW7saLsfnkNTaxyPUcb2K2iEnL1Bxjq/L2aw+FPAIWW4QRwhaaQIlV9UiCMnTUJlVTXWrXceLRrYv69zXcu0S6ZTdZzy7iVTx6THGzPpEWgOdFL28B1jrYttOacyybIUrKtjUklXyWToteEjFyjM+Ve3SqsJPxfRUVKTihmvTxYp5jmb05mWU2n46Y+VUtMysH3nDi71qm3tPG5YX3voIEmazfIK0vQ6mn1tGqfqOTROJbIOelRYexCd7U0Y2K8cgwf3QAcbnT3zdTp69TjnrLNEAqMBm9kX2AwTTlo4iPmuEOic6liZTwiHnuECIShSkYh66G7C4c6tO+8vWWIbHIP6lqGspAARaYfK8sdwtsGSaAqJo7GR61Ajde5zE+ZCXgSOhnQ/nNpx2lI9Ed/D8poxtCMXC5MF2lnTfgshLS1NswqLimHx/g1rRYyZ5+DFttQXNdPLaaKTfc1btBp1HTEM7l+Eim4FSA532g4czY0QQnNjG7pY15/q59TisYcvItpapYBHI2046ojRKONio6GuFq+++SpXDWU49oSphr8xnLgnBuHmxiKBGwssjqc/CXw+DI+DkNcFk1GjRppmLl+2DA2NjSgvCqBnWTdESAgtrQxnEVmFGCytXFFAJeKj06C1HeolEdNpjoV8e1ubEVRk4GmV2l+feaqqOVT3tmt5leonpQmpKQHzvAXmH1gqAZjhtKJ2HYEw54v1V6/fgvq2dhTm+nDUhDHwkOGSigjnaT3N0tbSgua2Tnv2PSszmxruOH1hTmPl3bIw4rDuSGH7c+fNxZKFC3Hu2aehoLBYcmpj1t05zvV5mf+4o8dYOO4LVjYe27g/GXzODJdpBioqdBWpFzZtWIfdVbXws9e+PXuZ1iVxPa3nuvTuFCOwjUb1NBqhxziB4Qppfh+yaR7VdmNLm93iZDf/WyxDL1BbTj0RXKZbDy549WgnQc+WyXPW48IuMQ+kmwRW7dh0wX/bWqVXvnPPXixeoo0kYMTQ3qjoyaUUHbowGaTHfFqaWxFs70QGC2Rw7Z5s9/hpORnE8MP6oV9pFjpoKaZPfwE+Cu/UaccbrrZiiAuXxcIrjptLg33goPZRpP8JHHKGu/0bPhxEKBylB1qOIyYciR07d2PDmrUI8OSwwb2RwfktGtYgHYmm8eQgjVUiM/P2mzE3ISalp6UiJ5PrbmY1tLSTial00EhsY5BTzyEbgYzWs2JhbdSQWdoF05mmFjpv1Hppv6YRZR5A0rjAOAR3ZIfkorcfpPWeOXc+mlpjGNo/B5MPH42Othb2wTmCzK3laqSjows5XvowuZlcc/u5/u+AP8WDKeOHIZ1tLVm9Aa/NeBlnnXUSJk463iyXCbQYzNiETbECe94XJwT9uPFHgsCNE+CQM1x0sXmIseZPPaHpo5d6eHwen/vuXHRyUAN75aGoKJ+OlG5pludNwvO8BivGKhK35JppzhbTTdMIfjIuS5s3TLd3hi12GCIPXcTSWB3hsW1MOk26UJFCPAoK8ozBDZxnVUqm2Iip9tXER0C50jb1kWQ3Kvhy87F8yw7MX7GT/gEwfuxg9O3Vne2GTPC6dDcLx+VjHcW6fbW9tRaDy7Mxtl8Pu2v17t/+huWCuOiiS2n6tXcuh5P9aIz0ypTe/ydGOaZ9XzBixcetjPjxvrTAjRNApw8pWL9CloTRMksXHcSEUaPGoiA/H7NmzuR6vAXZ2QH0Ki8mM0IIBNJZR+U0YJe49sPWRAhJPg9lBRjLIZMp1NkwzaCuLKmsTSFqIx6YaTdipNDZ0uXIFK7Z9fhuiHk7d9Y4gmD4EV8WZ9MfAjtWO+zUtN1BDG3U5M4UH2YvXIzK+hB6l2ViyuTx8CfpFR666OHsBqpOemYGghxjXlYAF06diFw6csvWrsVzTz+NyUcdjSlTppl268FBx3yrH+Eu7B1Q/BGexk9afLAgcOMEOOQMF5Ecc0Rt0Fo4jtHgwUNwxBETsHrFUrvQn+dJwuFj+9uNAp2djrbpz+4oZZ2Y3YGif4cIjvfuMFL3l0nerWVNzraYVqz//X8uk/x0zjrp3FX07IbuxV7sbe7Epu07EOySy+70o3AgfSRkxm8F+9Ow6HwFQ0hJTsGSZasxc8FqO3P0EcPZdj68kU5aJG2/smVWyKLjpjtbRx82mPP3UKjHxx97DLFQJ8484yx7lNgsosZstBKoJ/fXiT8S9OPGBwsCN06AQ87wDxPN6V1boalpAYwaPdo2JlYsWWzaNWxAGcrL8xEMNtMUkmEuhVnHcBUh3DSJYWkSvC3ItW4LPXyez03jOptVtDdvNZmnP2deZmCmtmOjHS04/sjRSOO5rTsqsa2qjnM+mSeBYRnrQ/XjsUCoOJbF6VvtawGcSmENBTvJvCT8/Y15WLqpHgNKfDh96uH0T4JIpabbViwrN3NVks6SJxw1BvkBH1ZSu1987jkMHjoMF150EXGTHyHHkf1ocS0E4ox3fp34I0E/bnywIHDjBDjkDBeYtHIE2g3z6m4Rap9u3Zs2bZq9duvF559BQ2s7yopz0LN3IS2B7vlyPHMjrSitGw7jc7Ko7jJSr72qb+3Eqs17bLAjBlRwPmc/OrevBZ6I4yAvvKWhDiOH9MdxR/SxNfnbK3dgZ00jkv1kv5pn+yZrwt0ZgoGhwUwJlpjupHUly7EaSR4/tlfW4J35H9DMgwI1lB54NnJSPSgtKUAzXXY9tz5lzCAcO6aP+RqPPfonVG/dhhtv+g4y07m0jF9oUvvCXn0aEkLGDQI3/hfhc2G4DSBOcLvcKAnmX58+fdG3TwVWLV+KFUsXIcuXjKEDuqOzq53zcJdpv7TCGKA/aonjzMkfcMy27pZpoyO4ZM1mtASTMG5oLwzsWUxGOLdEmwPGfl0cxCTN+VOPORKFrLt9Tzvmv78WnkAmkvWCPK6bbaqQjAhLlnfpbELAfGOCZSgmLmqbliGquZpMn/PeYmze0YB8fwznnzYNwwf0RF5mKrbuakY7l2hnn3KcvYpk6YpVeOqxR+05u6nHH0//QlTRH8dKRIW7xm5/8WP1qbFY34cAPlcNV6wg0FpY72SZOnWqvWpr1ptvmIc7fNgg9O7ZI37fG+tqhSZCcxllMYOsLlNEVnvkujXIi5XrtmLDtkpkpnlx4TmncolHTeHUIQ2WiDjMTrL1cUlRAQb0K7H5c/7iNdi+uwo+MlzMpgkwgqt9xcb4OH0dIVBQe+55iYWCrDvP+vzYWVWFF16ZjU6u144/YgDxOZlngbVrV2P0qMEYM6gcDU0tuPNX/4P6vTX45c9+jh5lJTY2tS9QWgey6s6lVCc4QuDE+rOy8fizwOfCcIHLaIGtdeMDuPDC85FGT3XR+4tQ29qMitI8DBncjwPVw3N0x6Tl9Fqd56E5MAYNzwRIW5M85+O6u76jE9NfeQf1bUFMHFKCi844BQFPKh0qPQJEtpO7manpSKEITBg/En165KAhGMQ7y5ba/nYS8+3tUBImUsGe7OSfmG0P/jFbboXAwYOTEnEycdIDY1xKRimd2jr1pPkxc/kyLNhRa0/EdC/KRnV9q73Y75gjR3HtDwr4LEx/5mmcfvpZOHLiEWgn3l10GnWRx64AklxyVnXzYpDLNS3ZzNNnv87YTewMHzf+LPC5M9yNxUhpee/eFThs+FAsX7Ec8+a+ixxSeEif3ghoLgt30HvlQFlOM7rdzhwPork8AT39ESah/WmZeGvBCjzy8rvW/ldOGIRvXX4OinPS0Fq3E0ldDQi3V8MTbsIRI7sjh8uvJev2YO3GTQj49SQpWzMnyfETdEFCmIrhUlyB0gLznpWnE2IAcdCWr4kiGeT3+9BCBv35pRnYS/9CUF9fi7HD+mJwj3w0t3Xg7nvvQbeSMmr5HfTMA0hL91s9H30BBRIKQY5dPo8eQtBTOurW1exDpeGH9B0viWBSSYxNOwhKh2ledUFB++tPPfVXeFNSccZpX0F2fg6WfbAZtdVkENka0nKOZlt1ZEqN2iSyvR5L86a1R++bWrplVxXNegb69S5Gn+6ZGNy/N9LS6PnG2lGzZwN6dMvE2Scfg6z0AB567Cls2riNFiaLU0fczZMwqR8TJ0f+ExmutA7lC1inxMOGRAE2QYnqHS5keiAFTWRyc10DRgzsi/KSfDqleWaj77jrXvzp4Qfw9cuuxSknn4Daqlp7m+SOnTuxnJZh3nvz8MSTj+OZ6dOxZv0qTj8DURh/sY91zqDr7kYP/onhn1XLuXqJc+Rzhn2M59/emmpMnDwJ7e2deG3WHA6wAn947h08Pv3v9nYmvfAnKUVzrDMse/uDOX5kC3miB/p8NO8hWsJgSwOuPHkcrr70ZKTJQWT5mlAUrbV12LJtKzJzczFkYD900Wrc9+AT2LWnBbtrOrCrthW+tGyKvM+u4MlZFFPVY6K2W9ry42Q2DXdGovV/NNoOr6+LPkEMLfXV6JOdjttuuh6DKwoRDUew4P0lmDTpOJbvQkFJb5QXFiKZjGxua6Wz2kXT3YH8wjzU1dehhh6/YNop0/DgHx5ESTHneXauN0Ha5V5NjfsxsbKfFr4QhqsLSae7+yRN+cmPfoRbb7sN995zN6697nqsq2zCz27/PSob2tDK1XJXknMTgUB1hKRpdoqXGpqKlkZqU1Mjzjl5Km64cDJ6pnsw8513sXH9Wpx51lkoysu1uoIQ533NXno7VEMwhBUbGvDMC7OxfusuRL2c9ykoekOD7pgxM8/+hKZA/WqelxetTSFjONP26DIZnowg5TKIzmgLhg/ui0tOnIqx/cuQ69cdNiHsojZPf36GvZG5rakZdDJMKPv164OBg/pj4IB+yC3IZdkuWr0ncMftd6Kd08Krr7+CaVNPNDPv01Mq/NPaXjT5f0LDBerKZf6SxYvttdI9upfh1ddeQ2l5Tzz83Bt45OkZiGaWoS3KNSqZYMPijzx03dwgNUzypKC5pR3HTDgMv/jaVLvzc80H63D++efZe01HDRmFSUdNQnlZObXlRAwY1BeRaCeaOjlfezIQ4Brp/U2tuPeBF7CNWhXzpdhVLkeTHQ0WUXRs2iyGq28KhL1FiieUr2nAkxRCa1MVRowZjKsuOw9HFgXQ0BXhCqIOhYXpKMlNt5cN6Yk23fPiXJw9ONTUV+KYKcdh9ao1eOX1v2Pa8SdRSLscDY8zXCyXf6P4s8DnNocfDFzZ0hKstFsJtm3bhtfeeBODadJHjx2P0tJCLFq2hlregeSMfBuYeeuaNykkmr394TY0VO/CUePG4ntfPwk9slOwk5p62TcuweKli5Hny8DW3Vsxb+F7dP7COOPMM5FObZ+zZD3uuO8hbNrZiG59KlBRlobmsBerV28SP8lQh4QKzpyuPP4ojqddrTK/wk7S3PqS4KMwnH/OiZg2sARVja249a5H8Ls/T8eSNduwtyMZtUEynJq6q6YNu+tasGtvE5Z/sBHz5y+wZvQueO33b9y4AXfffbc9PXrVt65CYUGhw2iackZkuDCI4xCPPy18oQx3QYzXFTRdK37ppRc50I04jc6bHhsKxryYv3I9gt4MvRLHiB+jk6fnsTknIFZfhePHDMP3rjwdffLT6JhV47orr8Brc2YZCcKRIDIzszD1pJPx+4cfQs8e5XhlZSV++cBL2FTZgA/opRcVcCnYr7u9w23eewu5DKJp5lLLvHFRVuRk0iUpLb4RWHmaU2V5rJjOcXXvIz9OnDIM/Qtz8cp7H+Avz72Mot79sId+xMKlKzDr3ffxtzfexZtvzsGrb8zBzNlvU0g3YfTwIRhx2BBkZaShqmonrrvuOqympbrm6qtw7jnncSy6kmgPFxsuNh3G0/ux+3Sg6eQLAyGsoBfca4l2xMSJOO/c87B81Wo88OCDXJIkYfLEUZgwZiRaancDna0IpHDFHOtCCk1nqK0BA3qX4esXnI3uhZmo3duA884+D6+9/gYmDh+Gs06egl/c8mM89uQTePDhB2kxumElNfoPDz5LsxtDQUFPmuQo9uzdSzObhDRvFxmox3i1DhYHZU0cQjpH8cAfaZpiZ13MMkrTKoTpOepGjgyaXUlEF52xjFQP6mhlosQ3wxNBTsCDgpwAKnr3pJk+Bldf/nX86uc/xOknHmvX9Zcvno9vXXE5Xnv1LQwZMhCXXvo1W9FICA0cPhsuAjf+LPCFz+HmgDEWw7XXvnDRIi5VTrZLnC/9/VVMPmI8lu1pw0/veRLrN6y33bmuUNiuqweo8Xf/8HqMHVKCutomfP87P0RrSyMuu+wbOOyw/sjI1bPWeaYRdVzRLKJm//HPL6JybztS/GnYs2s9Ro2owH/feCn6lGRj+dZa/Pi236G1i9rNuZ0zspA0povG0gaZe1crHELx1/5larlM7GpBli9CvC7BiD6lqGxqx86qGuykMOpl+XrJfyCQZtcQCnIzUMQ5PZ/dCGp278QTj9P8//4BLi8r0bdPbwr+AzjmmOM5Xn2vRTO+06uzPBUmB2L16eALZbjAupO0cm7WXK6bEn75y1/i5ptvxqhxE/Dscy+ge3kxFm1vwtN/fRFLliwx715vgfrqOWfgmOEV1PgIvvudH9kdLLf96ma7N60lHENlWzu27anB6g27MG/RBmzd3silj26kjCDcvhdjRgzCtZedjSFcr7cTjRXr9+CXd/4RrWHtmqUx0FcwLONm036cSPmKHVKT3Vqv0dbHQi3oWZCNO79zLvqV62nZeKWDgO6k7+rowO4du/Hnxx7GzDdexfylK+1cv97luOue+3DSKV+xmyFsW0dr7/hyVBi4Jn0/Np8evnCGi3nCVR5nOxkkZumVGWeccSZmznwLZ331MtzzmzvtQfqajhiWcA7UC+0HDxmMYeX51sYdN/8K9/7hfrz82gyMHHUY6ls68MqcxXhl1kwug/aiPZSMjlgKiRVARnYOSkrScOTYIThx4uHoX+C3W6NEs7VbGvHDW3+PlhB9BE+AfoKcQxI5zkyXsA5pxQCmEuZv7XlHO5swsl8P/Py6s1Gam4rnn30J23dsQq+KPsjIyEJ7uz6v0YCq6kps3rDJXmW2ccM65103hMz0dEw94TjcdNONnOKOslduJ3s1b7u9Ow4rGbXP8jj5nw3+PRoeB5l1gS5hrt9Ax+30M7Fx3WqccvrZ+OGPf4jxo0d+yHDtranFfb/+De657150cgr4r+//BD/++X8bAaqqGrGdXv/eujrUtrQiKTVABzCC7j1LMWhAX5RyrsxiuXnLVqG+thUnHj8BS9c04yd3PECGcx3u9dsGjLOF6ZBTPHeN536s6TgyU8T3ejlnN9fhqJGD8OMbz0EKp57Rw4di65YN8bIHh7yibnbVcPDgwTjxpBNw0rQT7F47abBWJroiqHv3zBgasx28HHb/ayz/whl+IKh7ab2Y/uZbM/Gtb16JLVu2oKJPP/PcR4wahTR/ii1ZZr7xBua/Nxd6gU9rezu9/Cx87Yqrcflll2L40IHxFg8O1Q11ePLZ6bj3zt9i3JHH45lH7sPbK2nSf/M42qjhUa7t3R23CImtlwGaQivwT2KgDOWJKTLr5As6G6px0qQxuPn6M1BfWYvhw4agvHspzj7nXApWLf0P5zlvraXzCgrQp28fdCspRfcePdC3t17tAbR2Bu32aefJG4HbuctWp3/XW//s7Ga9L5rhbneu8yYQw3Wzn75uMH/BAvzspz/FW2+9ZeeSSSgJg16Podd/vfDcc6iqrMSPb/6pPb4kKC2vwHHHHYuhQwehuKgQ5WXd6DDpocOIPb67ctUqzJ73NlauWYNQcysuufZGPHbvbzB/YzV+9qsH0RpMtldvad/MuVJG0mqDhVx3tjoEUeIp8+rmR+xOm1BzNS445Wh87+LjsHj5Gkw68gi7IvjIQw84tThGmx0OYJEeYdazatrB00OIFPs4U/UX53dcwASilPIVXKvzWeDfquGJXYvp+mRjCiVdH5J78cUXuW59E5vJVL2e6/DDD8eFF12IIYOHWPk9e/bYnP/Wm7Pw6muv2rfCHKdGQBMdETGTbUND/Rx+xJH2NYVZr7+KC795E/78+zuxYFMNfvI/v7PnvKOc76NcBonpuuxppN+nZY6G8QTLyeyS5LQEKVyDe4JNuPqSabiUU8RfX/o7zj/rNFx1zTW496679lkuM9VMCw+L1Tpxsy8eEMRAy5XZZp92exT/XFFz+/9/UsMPBBFAg1cssDkrzrgOerR2e7FeAkDQFSO9dFYP5tmXAghCX98d++CDD7Bjxw4TFoVamlNp+GGHHYYJEyZgFKeGu++7HzdcdzUuuvK/8MQDd2LRFi3L7rF75HTnil2Ng5dM1fIsfhcpu3HJ7N5A6byJicyJdCLXF8L3Lz8dU8cNxq/vuR/fu/Fa3HbbrfjB976PIM25Po2h+s7unFgmb1vNOdpLBkiO2C6PmbbxW29uv4qdY2n1/nOfDT6rZTgk4MragTLnaoPewqwLB2KcGE2qmFboJgjlKaisvjIgC3Duuefi2muvxS9+8Qv8/ve/xwMPPIBrqG1ittOHQ6ZYtMuI5vOIAXKOqG32MIQYw1KKWcK8cov1S+ChEYwZus1JW7cZgVTk5GYZ43bt3KGtfvTo3sthHNN2V60QtzoWMThtW8xCSuvP3m1nKTf+7Iz9R/BvZbirzf8ouIIgs6g7S3RvuW7607GsghtUzhWAMOdFN2idrw0d5Qvc9mI8FiG9bMveCimiy5wy0313nH2C2mWG5bOe6iqPtZnNcxQaThkBMl1Xzyp377Flpj6Gp76snjRc1kDjiSpODMLCaV+t7v9zj50+DyX8WxkucAbtxInpRDDiGROc2C3rBpsP40Jgd8oy6FjM0IMGylc5pQWsZczS8152YcZy2bb+1I/atX4cpqhfZ351+rfK/JcwicEZtDBtTFfXVMGX4jXnUvX448RuHbZvaeuO7VqfLmvVu/ObGAt01g0CN/4s8G9n+D6tE1ET0gIRyw1GnHjslj0w2HnGbl0H3Fjfn8m0OExvu1MM9AVYLj5XS6PVDudnu/1Js6rlO6Y4iXX0nhl7IZGu4DEvFA4hOzsLedmp9m3R+oZapGdk2kt9hIdezkf7oquqpDTxkI9m6DDBWCyVKybz7Yqig/1+pqq4VY+nBW78WcDp598ILmMUJ6YPhAPLHSy45z8MLun0wThtvegVWp1op6eUosdYyRiR2UhtzGVa3KRASNOd8wTTUmYzqbnWcTY99qXhLDKzqqoadXX19qlrvUkxopsuVF8VpM1MG24KyrR/J+38CZzfRHBK7A+Cj5b65PBvZ/jnD/sZLudO0NGmb5rS2Uujdol6Mc7pmmeN4Q5zxGb7FYPEdAkA/2z64MohFNSdKKkozM8xIanZW82l4V706VNh2q0/9W3Pw+lPefFgONl/4p97bKf+YRC48WeBLz/DE6iTbi/79aAzFERXsAsBb8w+7+y8841mVh41GSIWiYkCsUBrb7Uj5othJiN0CgOpqcil1VDJKjpswc4ODBrQXwXZBgXGbYtpO2a+Y4EY7D/xT8xwTHtiiJfeFwRu/FngS89wM8txyM3JgT+jEE1NjfZ9sBRqc0lhsfFZZBQrZbmVNuZaHuXANe9Gaq4I6P0HUvz2NGp5txIru27NasRoNUYNH2mM1tJRwmNMNmFRu4wdOdoHLnZu6y6TE5ktcON/Fb70DHc0ygHd6VJaXsrlU6V9fUCfoCgocm4j0hcTkmiq7fsq9idzTO5omRbV5ok45Zj+ZJl/lsjLTke/ihxaiyDWrloFf0oyRowYpposq/KspTbUpmLlHsBx90jxPwoCN/5X4cvPcJfQjNPTAyguLkbd3j2oqqxTLrr3LCcTos4636ctErJaTNElMdNspnmees20HpDQvfVeOn7N9iruPNbZvH0ntm/cgNKiYmRnZlHIVF/sJuPN2ZOWK1aTTmyB4PJfIvKPgsCN/1X4UjPcnKS4hkvTPVwzd+/VA+iqx9LlHyBIMg4Z1AvFRTlcYnUi2Ss9JstJlYiWVMZsPeQftmfeUtP9dPaCaOTyK4dLsWMnD0eA7b6/aCE2b9uBKUdORmFBkW3s6AOzZh3EUFmIfdzjz750QvwFwZea4TZ/xtNifprPhwF9etnx/DdfRltrGwYVpeLICSPRVFtlz3zHPF7qcBLCNMOR5DB5pXU01972Wk09A6rvnHTilBOPx5hBxdhe34K//OVpBOnEHT3laPhS0+xuGOdFRexXOJDrZuZNs/ljsbBIiL8g+NJruAtKe6m1ek5cl2EXvzcb786aiTTmnXfCRAwfXIHmpr1cpunyiNbYDEzTHaf/HkZ7SxN2bdti3zq98JzTcO6pY007n315BmbNfAPDBvXHpCmTzYKzsvVnAsfg7pU7jHZjYZUQf0HAKS6BKl8ycK/EaYhueteuXTj9jDOwdMkSnDjtBDz22J9QxHl91Y4qPDb9Fbw+bxnCSQF7sb/2vumHwUvm67PPw4cNxLFTxmPwoBLo7rUZc+fhyvPORlNlNR557GF8/dJvOC/ncdgrEyMCW2ycNWlQvhNZLOq7x18AfKkZrqE5GkaTGme69tlvv/12/PCHPyRDo7j88stwy623cR4vQlV7GHMXr8G6TdtQW9tkb4vq2b0Y3UuL0bt3dwwq1XdWgB1trZjx8kv42Q//G7XbduLrV3wD9951j30wVtSUYO1TXTHZZeyBzP03MFyE+NJCJBKxmIyOhcPhWCgUsrzm5ubY2Wef7bIgdsqpp8befHsuFfrjYcPG9bGHn3gydtq5Tl2vzxu78tvXxFraWlk3GguFQyyllPpk30oIBTcOx2M3CNz4C4L/KA1XWi/P0zX1PVWVuOHGG/DcX6db2aKSEpx55hmYePjhKOvRHYEUn3nYVTU12LRlM9atXYs5b8/Fpo2brPzosSNxzfXX4fxzzkWA5j8UCZmjppf4CnRTg6USNfxA+Ddo+Jea4S7IlJsDxbTmWD1NqrtomumI/eXJZ/DIww/Zw40CMUnbrempKQizXFNzGzqCzvtjSooLcdRRR+G0U0/DlGOORmlpKQWJAsVydsuy6qsfUlSXXeM5Vvf/FviP0fB9oDTzdHOE3X7E+VbfZJkzZ47dQ6dPdezcucsujvj9KRgwYCCGDx/BMAyDhw5FeVkPZGQ6H+Cz7VOC8/IhLb0E7JN/7q9dG/3/Gv7FQ6LHzvnczLouYepYT78kQktLiwmEvqx44DnjITVXN0nqFWJ2a7FRUCxmwpjIH+Z/4dz8BPAfwfDEISrtmnhXAFxQ2s13j93bo5TnWgubHoyhbh2ljN0fgf/b2P4fp+GKBYnMc0mQmHbBLZPIYPssVbyYU0fxgWT8pKx2y7j1P2m9zwb/d3kUXxCIaS5jExmcmE4Et7zLdDEjUQgc3uiHzI8HgZNW7ARBQm/xWGWVjre1L634YEHg+gsfzhUkpg8G/zEa7jLsXxmuW38/4z8MatllleufH8hOBxJLCg44uw9X51jdKf0PujX4aB8Hh/8Yhn8uQMo5uuYwb39Kmq1fWQEe84Ri55wT708pFjixc1u0LIpTKrG+Ezt1nNbdWh9uSaDjg8H/1/BPAfvqM3bW2g5hXW1Wy05wGKJUsluOscro/nXd9qRyBtZePGZLTh9yEO2sbf/SaVBTlucIwn6Ga+deV+v1ylE75s/HzdMfy/ADieSmFf8ngshgQ2fs3CQRPyBEIvTo99lx0omx895XBz5MModdDi3tMJ7LP+Wxltb4YS4f9dSpnhd3izm038/wLpZXvi+eb74j0zo6GBwSDXeFwG3qyysYRs195NYYFbQWF5EToZNFtaTz0qMXu3QfpLNmj9eNtxFhrNuftAEUf6OLgRaD+tqDGGhfbmADXkqPW1PCAI/HXnik+hIu3faufqTx2udz8U2EjzDcEIoj9mnBZbDbxpcJjBr7fjg2jdHUVywAgl0hdHZ22F69bqLQVwx9fp9959wYSdMspujb4Y4WiqE0yOIQD/RWiqbWIDo6nHe16oM4/hSfvapUn7wi7+EJBZGSLBPvYxUPOtlXUG+EJgRYRg8dqzUJn8UHgU9s0hUksW5eInMFbjldfnTTbpnPCm4bB/bxr7b7WSFKqmsNHglT47xJaAknYfX6bVi15H1s2rgBe2trEAy2wZPiJ6Ny0a28O0aNGYWRI4egKDsNPs3HxF3o67WcJBaqyN+Vqzdj5fLVWL95A5oaW6i42sFLht/vRd+Kvjh8zFCMGNwTRel+RENtFBovTb0fa7fvwlvvLsPI4SMwZpC+hRZ1fAYJlbFcdPswrQ6q4QeDT0rkf1Q/ERKZ+I/AEOa/yiX2/U/rxdv+R30cmP9JcDkQImR8czCC3z87F3+f8RJ65Xgx6cjxKCrMQ1rAg9bWEFo6gG076vH2goXoMbAC13/zAozrXoCgKU0SUmmf56/fjTuemI092zegf/cSDBnSH717FVODk9HQ0GHM37x+A1avXIpJ48fgkjOnom/PEp732AuK5y5fg5t+/D+49qqrcPEpE80M6EW/dluVeQ+uU7EfPtaku2nB3Llz8frrr9tOlYLe2KD9Zp1X0IdSdSXpiCOOMC0XuHUT2xG489fHgYuW6h2YTmzrQPhE59V3vMg/K++CSGd+WiyKDmrfK++uw62/fxLHThyJ7553DEoKcnhShay4QQPDq3PW4K7fPYgRQwfiv6+9GOW5Afte6qwFK3DrvY8iJacE1152AQ4f0tNunkyntdbt0zLxmsebO6JYvmw5nnz8KVrYZHz72mtw+PAe9qDE2++vwE9u/wO+cfnX8dVp4zmHa+4mdTkeh74HIET4MPsJByOq0osWLcLvfvc7NDc3G8PNaSCorI6XL19uz2f/9re/tfK6MKF8ty3FbtCtuonHBwtuHQmW+nLz7TtgcVC+e059acrRQN2yMUr8h87TjNq4+O+WcfvROdXXSwfc8m4ZK6fYiMk2Gc9csAS+9FycfPJJxuxwsAOhlnq0NXWiIxi2Bw1TYhGcPmUwTjn+OKxasQ5rNm+zD99u21WF3zz4JLKzcnDnj67GKaN6IiupCxnRLgRbOzhGKhLx9jEUcXI+4YhRuOH6qxBOycLNd/4BOytbDW+FCPHS60NIUmPvP4OPMFyDc2MFl2AiRq9evfDTn/4Ud955p70T9L777tsXpk+fjh/84Ae444478NbMt+xqlH3FP070YGcQ7e36tonItR81tz+BiKwyHe10fkJOv7pDVJbELbd792786Ec/wsqVK21v3L3iJUEwpvLY9TVc5rnByhIflROxFAsflXfbkTAKb719wsVXoN6tLsuwMhrqGux59bQ0P9r01STi6NNL+PTie82hHj2bHmS7URw5dpR9GKemtgUdbOO5V2ajPRjDt6+7HINLs+wFfvLAA9Tu3ADnbjpmqUkR+w6aJxKy8Y8dXIGLLjkXje1deOb5V9gucSFOEXtNifzzA3X54HBQhrtS715N0rGbFnHccomxnse++OKLUVJSgtdfe93qCAMhK0gNpNrDfPbaTWk/lxpuHwIRX2mVSUtPs+eu1aYuT2ot6pYRA9544w17pYf60DmLOY04z4N7LK223HyBjtWWCQXHIIFyyyronMpLGPWeGeGhoHPq0xESjpUCkUq8y/PTEWprpnC2Iz0lFd5AGjpDHFe4mWXaqKFJSPf6rc2h/Qrxs5/chKMnj8TqPS2YtWQtBvbviRH9yilEEaT69fiwjLEYp0UcvXwt5I09eoWXB20sd+z4fph69Cj6BQuwqboZMZ8foaQU++apCSTDP4OPMNwGzQElxi4kMlkEcEFp5ekTzboLRC+i07GIrGWFXry3Zs0aLF261O4aFZP0BKZbV0HEVx29xGfZsmVYsWIFqqqqkJqaagyQBquMYmleU3OT4dbY0GhCJcZIK9euXWv19aZmmWm1LTxMixnUrwRDAlVfV4/169fbY0du+ypbXV1tU9S6desMdxMk5kuCxXM/+508YgA66/dgxoszsHZbJed1MimQAS/xTabw6POa7R1kHQU7J8OLccN7oiTDj9Wb92BnUxTjRgxFjk9zrh548JiWkgoIxYPeNxOJppAmytdumiNow/vkoamzFZsrqxGjoOmdNBEKobjxSRjuiP8BcCDTBYol6W6+m+cGEUoEF5OGDh1qZaSFjzzyCBYuXLivjBhYVlaGyy67jF7pECOo7hN/4YUX8PzzzxtT3DbF2BEjRthbhnNycvDkk0/itddeMzM/4+UZmP/efM6hJ5uzqHPPPfec4eBqa48ePXD11VfbK8CUVtlf//rXKCwstHeg3nP3PdbfKaecYtOE3ur8xz/+EZs2bTJc1YbC+PHjcfnllyMrK8s0UkI0cfwInH7sRrz+5utYvWIZ+g0cjEED+6M0r4RzeiG6laYiP9txwBpjnNI6upAVCGBXTTOFwc/lVn+2o/ZFSCeWBZEAyMpoeSURIxmo/PpJ4rIriSuBDBOO3TV1qOjTCyF6es7tVBLHfw4HZXgiuMwViDGSdoE0yiWIQMyRw7Z9+3YjoJy7G264wV6yJ2L269cPgdSA5T/40IO48sorjfh6Gc/8+fPxk5/8BFdccYV95kpt6oU+mq/1kp6tW7fi8T8/bm9kEkOl/ePGjbM3Gapd+RD333+/tXn00UcbnmLK3/72N9x6662m8d/61reMiXrb0+zZs+3l/Ndff70Jn6YhabTqCx/5IhIKCYMswPe//33WW4177rnbrIDfn4q8zAB+fM1FNLFHYOHyD7B09QYsXbGBwhhAbn4eigtT0aPYj9HD+2P0uGHIJk56LElfOIqG5GXR6pCPXnJUFLS3kfC8mO28ecJRKJGXR/uYqdeOy8zrM5p6e4WcNjmUnxjY6IeAhNoXK9DU2fE999wTo5bEqJmxb37zm7FvfOMblqbkxy699NLY8OHDY3TqYn/5y1+s/O233x6jdsYoAHZ8IFxwwQWxiRMn2m3DdABjEyZMiJ/5MDz11FOxadOmxWii7ZgCFBszZkxs1qxZdszlYqy8vDz217/+1Y5dULuCZ599NkbrEHvggQdsPNT4GJeQsSVLlth5gcZ43HHHxShc8ZwPg/ocOXJU7NFHH91Hk462tn200t3HLaFobHNtW2zeB7tiD8+YG/vOr/8YO+/GX8WmXPKD2LHfuDl21zPvxhrC0djt0+fGKk64Mfb2B3WxDqIoPIUqnTC7ndnSbItCEYt2OXEXM5uj4Zg48daKlbFxZ18X+90L78Rmb6qODTjtu7G7X14W6xAewicacfAy1Nx4P3xkDj8QWMZimXOZX5nGPn362Efg+/bta+lBgwbhKi7+5amfd955dk/Yq6++ChLRyhMBq68grRHodVr19fWmvSNHjjQzKs9f86bmUL17TXD++eeDQmQaJy9ZOEjLXM/97bffNi099dRTbR5Wvvpw+znmmGMwcOBANDY2muVobW2113ipT5UXbqtXr7Z3vJ100kmWp7KyRAp655va1+ewX375ZSvvox+QSn9F7cmjDwe5pPImoSI/DROHlOFrpxyJW75zGX77q+/jR9+9nrTqiwcffQQvvL4YBdmFKM7LRDNXIpy84mZdWkpkTZvjVpUZVHTbvtUL+WWKQxxvc7uzhExJkamQlrMuLZeqG6esHf4oiHeK42dFr09s0kVIvbtcJjYvTw/aHBzUqBipeVbmVscKMqduWkFE1Lwsk3/88cfj5z//ud05KgaKqAIJ1bBhw+ybpXobI2valKK2xHSBhGvAgAHmG6hdF4S3BEx9ZGdn7/M/xFAXf/WjcmpDAvL444/b5pJwd4XT9eI1jfTvP8De3d7Y0oaVNPH99CmNHmVGWCqSMUsYmAPFJWEuZ79jhnZDn14X4tKV8zH3nXdxyqlnIY1rsA8o2MeMLeXcHrNXj+ilA6ocJzfrO9OlvWSILfp43ELmr9teQ3yS0a2kiFODPrCjN046fVv//HEuoTK4GYqVw/gTa7iILAJJ+sMkhojiapQbdCwktZxRPVdLDXEeSzvd9tSO5n33WBbioYcesnX+1772NWOyvP4HH3wQX//6100DNbeJCarjCoUcNPkN6lv5bns6L5yFg4Lrcwjc2CFwks358hk0/8v/OP0rp+Ocs8/BhRdcaBbrrLPO4vx9jwllCsuu2V6J3z72PP42Z5E1QqtrV8IcX1qWhQss9i1i07oi3xfGGFrBBq4oupdno6JnCeYvWoGG5hj9GqeM4STmMGgMNm9rm5QOn8bi4ammtiTMnbcIPbuX4PCBPRBqb+N6XV9vC5uT5ygzf/Rsu8TOaKHYCZwsPp7h1nECkURAV+ITg7TNjcUQaZCCHCS3npB2yyhPyzTl9e/f39bVereqvGD6Ajj99NPNydKL8yUEWmJpipCGS7BU39VwedCaFrQcUz8KOu/2K83UNCHh0Xhcp1PnXejWrZvh1rNnT5uGpp04DSdMOwHHTz3ejhXW0OzPe/ddEj6G1MxcNIQ9WLVtL2pCZBipre+iaZ8vRJKGxWj2FQzHL3GybJjOZoDOXllRBqZNnYQ1qz7Asy/NtFd7cZltz5RrK8XZLFJ9TUu0SlwVOMz34pU33sGmLbtx0tRjkZ/GpZ8sUCTIoOnNrcu2OCZNf5bmjxskWB/LcJewKhyOm0SXYAIRNDF2iahjLYdknmfMmGF5qidt1DkxUF619t21ezdr5izcdtttNr8eCImMUvtijDRW86uO1YbmZPUnwamrqzMTXVlZaeb53nvvtXZcy6DYtQ6ko42LTh/OPPNM3HLLLbY0OxAkbDfedJOtd0X+gf27YSTX0e8tWoI35q2kOSZDSad24tPJNjsoAFyCc51MutD8bqxswNrNm1HeXY8wJWHcqEE47eRj8PILz+KJp19Ga5CMYP0ufUuLTNKMrHfFaW/c4+VUlZSCZ2e/j+l/m42zzzoVRx85jkIltpI+nMuTKRQppKt4pXa0UaNYtNarxdzg0f7Hwb5q5DJOBFJa4Z133jGN/epXv4rMTOcFd245QWIdEVSOkky2GKvNFDFJSxwtlf73f//XnD0RWAwt71FuTFcfYpiCnDjt32vJJYbId1BZCc3MmTOtrHwFbfScc845pslyGrXlqnW//AHFcvr0ZInm8ilTpuCZZ56xdmRF5HCJSAoSGm0MCV8Jk6YcMV+OmvK+9a2r8K1vXoE2vf2J5YuLS7Bp83a8u2ARtT0VmTnZCHoCZLz2t+k/0BlrbO7AotU7cP8fHwWX4bj44nNRVpqFNOrM+HGHoa62ES+/9CI2b99j++Rp2Rnwp6YgkpyEtq4k1HeEsHxrFX77xKv43dOvw59TjOuuvQC9s7ksI7m37qrF4hUbEcjJQ4xj2lLZiK3VTdhS3YzNNU3YzPTWmkZsr27ATobK2nqafXEoAVwmu4xzGal16oYNG2xuFfGkKTonKXLLKciDlOkVEXUs5ogRmvM1t4th0soTTzzRPmMlM6Q2NA//+c9/Ng9d9VRe86ocP23ZyvFSn2pXeKhNMfzCCy/E6NGjDUfli+Eqp7W11u1y9s444wxMmjQJN954o1kBOXiTJ0+2LV57VbXwt+vcEdu8mTdvnlkb4aqrgPLeVV/tBkMRpKZw1iTOK7dU4onnZ2Lhmi2IetJQUFSMrLRUrrVJm3AXGmqr0bC3GgP698WZp5yAsSN7w6eJlqZVX3BqDUYx+41ZeHXmu9i9tx65BSUo69GLeMkZbUYrPflde2vhzS5B72Ej8P57izCoJ5l+yfEY2bsYS1Zvxa/ueYZTR4g40RJwHPaKMU4N4qo8fA/HqL07RDqRlaoHJD+G4YlpMcU978Y654JbLrGughgkEAOVdqcE16y6AuO2L3C9ZD3q44KI7ZZJ7FfmWxsoMuljx46N5+4HWQpdxdPmj5yvRFC/alfzndrWdqsLalfTh4RO4Pbv9M05m/OzPoHR1hXDtqpamuxd2LOnGh2dHRyntkbopWfncOnaCyMG9UE6mw6ZmWY/bCIYIdNl8dleVUM7Nm7dgc2c6pppCUMhLf3Yt9+Hom5l6NF/EL3yVLz5zib88aEHkZeRjlt/fCOKc1KwYWcN0aF/pGsKZI1xx8jkHAhdD89rc0b4/lMNd4nsHotpbhmFA8scCDqvcm4ZHaucSzy3LTffFRCBjhPbF6ishEEgJogpshaCxx57zJaOqiPQ1HAT515NLU899ZRNRRImaa7aEagPw8cuXuzvz+3TBELndSycSTweOQ41nSq9RkTsdUEUcFpOBPkOxIlzvbN9qhzSj0IR4Vra44m/D55BT6zK2kgwnNW1WiNmzNedLsvX7cKuHTsx+YgxyMnY7099UvjEGp4Ibr5LNEFiOhHcum58YDn3OLGPg5U9WDkxXoyQl65tWvkK8g3EWO3jaw7WGl1bpZoaxDwxVBdQRG4XNK0kHgtsXa2+2L69CUppxiplzOaPiYjQ4Y9ZUrUSb8byeZ7Gw6mnOjyvOm5zAlKXc76EiMIuUeA5Hak03TBFlqdOVU90CIeorT6Ki4SI/8JH39pT7JSNx/GE2tav4UECKncf6FCNKnbTB4Kb75ZzyyTWFRx4/rPAgW0K3OPEc2LkqlWrzBfQfrsshXYC5YwJpOVabx9oLRLbSQQjlc6pjM4xzUJGR620FUuvFatvt75rEeyIedJT7YS5Gyu6J07nrH2VYcqa5h9ZT/5Jz516DjilrIYjaY6VkdDa0ot55hewiCZt60d5bi2V1xjUSQz/Bx2GIcvXO0y8AAAAAElFTkSuQmCC;" vertex="1" parent="1">
          <mxGeometry x="56.26" y="58.5" width="63.66" height="57.5" as="geometry" />
        </mxCell>
        <mxCell id="KQhJbLYP4OwqPiLoFDpy-3" value="" style="shape=image;verticalLabelPosition=bottom;labelBackgroundColor=default;verticalAlign=top;aspect=fixed;imageAspect=0;image=data:image/png,iVBORw0KGgoAAAANSUhEUgAAAHwAAABwCAYAAADc3BTFAAAAAXNSR0IArs4c6QAAAARnQU1BAACxjwv8YQUAAAAJcEhZcwAAFiUAABYlAUlSJPAAAFNcSURBVHhe7X0HYFzFtfYn7a5Wq94lS3KTe8Pdxhgb04ypodcASSgJNUBeykshhcALkJfQEgKEEgIBYroTugvY4IK7ce9Vxep9te3/vnP32otxCBBD/p/8R5qduXOnnDltzsxtSTECBIqSkhjb0cFBp1kuieViH1OQxT4MKqpMq8JEEmvH0x/uMsoDFWS8r9LBweqxiGIHnISDn2KnbbUTiyXbucQ23WELNJ6PA5V1ykdZ1oNka85ty63rtBeNumMTHsk2nGSWiXHMUdXf9+eUUf2D9y4KO+cUR+NH+nVy9tdzcvZjYiAkXCLFTwqX/Qw/xOAi8NHGhQCRjWPndu8QlcOyis6wxAiXGc75/cQUuOeVl5ysmPX2ldd5lVMdEn5fvSSWJQvi5VxI7F9pAxbxJnst/iiorIuT04/Hw7JkbyLwLCLhiNMGTylymaVzTop5No79+O8/6zDZZbhzhuX5wyGzjtPmx4GVUVmGz43h0lENPbIPcXajnuJIIsozDM74yASPjwM4GOpqSfBhQiZCJBKxIKYnJ0sDRbwogsFOeL1eBn+8pAsxhEJhhMNhI7BTRsz6KIQjYVRVVaG6ai8q91Rix86tqK2rRWdHBzo7g9Ro9t0VMooW5OUhPz8fJd26oaysHCVlJejGdGpqutNWOIRINIwUXyqPqPGsKxAOEsJoNGqxA/+E4SSLinKYxvz4KSfWcQLQ6DjCIYH7vBju4qDOokwkK2ZXjgTHECbBYxx8ampAxcmcLuzasR0b1q0hYfegubUFzc3NaG1rM2wzMzKQkZmFrKxs5JGoBfmFKCgoQHFxMfJIaBdisYjDhEgUKSkOYbdv24pNmzZj89at2L1rD2pqatDU1EiGdRo+mZnpyM7JQX5ePkrLS9C3ogJJ1Na1q9dg/sL3sWH9Jmzdsh3V1bucTj4B5OZmo2/ffhg4cCCOPfZYjBw5EkOHDDbBDoe7jLkSMpF/P5NJM6OP4FNouGXYqfhJJynQoZv3BZh0zVtMJyLBtI69wpawc/sOvDzjZbw9czY2b96ETVu3kNmtdu4fgc/nQwYFIIdMKisrw7Bhw3DYsCEYPXqkpVMDEqJkvP3OHPztpZewYMFC7Ni+E3uqa43Y/wyyc7KMCQ31jfEc9ZmBsvJuKGcoKSlARnoAaf40xGglxDwJWCUFqbKqBg0N9dixYyciUj+CGFteXorjjzka515wIY46+ij4PH7Wo9CTGI6Gk6nSVjElrhSfiuEJ+WKsGUS1x1hY6NA5/7kyXFrtoKrjcCgEbxLNpy8ZW7Zswz2/vQvPvfA89uzeZQMSUun+dPSq6IXMrCwE0gK0AKmM06yx5qYWtLa3orGpCfW1dWhtiVuAOOTmZLBuBcaNG4fOtk4K0gw0NDbZuQDNaklJKXr07oXSbsUoLKaFyM/jvOtBG9toaGhETXU1zXclqmsq0dHWSiaVY+LEKRgxYhwGDB6CHt2L2U4KvLRKKV4PxyIzLAorRNEVCtLUB8n0WlqErVi/fj3emfcO5jLUcxoQZGdn4hhq/Pe/912MHzvOphZvip9NyCHkMPljTCTnPhXDnVP7CR8HHbrx56zhRJAtm4ZrEJqfbDAxPPHEk7jl57dg85aNVjYvNw8TJkzEiSecQA09DEWc94oZsrLS4UlAXtDZFSWjm9DY0IC9e6uwZvVaLFw4Hx+sWYtN27agrrqG7oGjWYLikjKc8pXTceyUo3HU5EkoIqO9BzaaAG3tnRSmajpaYWRlcwrJyWV5Lzp5LkTmtodiVkbnNV9FGOSFB1J9SKMwpPm88NMdcI10RzCGdevX4qUZr+CJPz2KzRvXWH5uXjZ+8N3v4VtXXU3hzjS6mGKLrXH05NObh8/wTxnODt180/A4WB6DS5HPVcPVjcgRlUPFoxCJdOdv/he33norNbCdzCjGBedfiNPOPAMTJk5EanwuayF27a1BtHW0o4sOUThM8SGamWk+BERQan1muh8eK+1AC63H9q3b8P6C+XjzzZkUhFWoGDgI113zbRw9cZyVkYvU0NCKVvoHLW1hNDW3IkINS/GnchrwItXvR3ZGFjU/g46VVUGYPgHRxwaa91dnLsOChRvQ1NrOcYnZMuUhEt6DHFqkrPQ01vejd89y9O9TirLiAPqUdkNOarIJTFVlA/7y9NN46Pf3YNumddb+KSdNxU9v/glGjR5LRjmrBy3njEU65p/LcId1+xkruZWBkX+kU2Kq0hGmHW128gVKqtVDznC3Dzlo6iDCWF2Il7fc8kv88pe3mmmfOPkI/OIXv8QREyfBxzmuhWWXrduDVWu2cL7dS+1tQnNjCzrpaUdJdB9NaGoghczxIp3MllMkj7hHjyKa6ELk5OZjQD6ZxnY6iERNTTV8mdkoSkvF3g7g/bU7sOj9lea0NbLdIB22UIjzuYk+yUrvPi2QTgewwJzBkqJcDBnaE0OGlaKAuAu/VWu2Yv78LZgzdxlqW5uQmp2HLnqkkSQ5YhGEgx3wRNqR6onCnxylgAbQv38fHDVlPMaPrEB+CsB/LF27EXfdeQee+tMfrf+Rw4fhjw/8AaPGH2FjFRFFryi5ZlpM/ISmmC/aGo35I0sg7iVquH7EbKVV1gU7RzikDHc7cRokioalJDYJDzxwH2644b9sKXPyV07FXb+9G31794bcs6Wrt+PZ1+ZizRZ60LWt9OoDnAJ8RE4iw/ZIhCRSIIoQ58yQMyCOUktkP7UylXN8EefvQd2zcfzoAZg4YiA11GNtvzRvPf42ewW27q5FG6cCL73kSMQVQvoT0iJ24yGOmgnkfHWReZpDMzNSiGMuxo3ojUnDB2FMeYFp6qrN1Xh2xrv426z5iKTmwpORgyQvceY87I0G4Yt2IZkhTIESdTMy0lFWkofJk0fh9ClDUeRLosC0475f/wp33PYrCl4IE8aMwIOP/glDhx7GsXPJGudWMpHTJlKU67Bk/om5OmdMdiFOeJHb1XAdW5l4O27S8zOC5RwCUIP7+mDC5m6OeNnyxbj+muu4fm3AKC5P/nD/gxjQry92NHbh728tw90PT8cHG/eiLZIKT1o+vGk0qWRiSpqfaS88nBuTSCSv38fgR0qA56iN8KSgi+23c0lXzTVysL0dR44fi4rSHFTTafvdn2bgyRfexu76NhKB7dgySJRIpqNE50trbw+JyLlBuJL7bNKLlFQv82I0/c2o2rMXa6nZa9bsQGs4BcVlhRhcnInBA/pxjgqy353oZL9eOn8SbrUfo7WIxTzUfvaTmoF2CtGm7du5PKziNBVFcQ9akKw0HDd5MnKy07GUPsj6LTuw+P1FmEJPPp9LzjA9eA/biS+eycy4fvNfNBYIZaO3fqQbPDZwy7jHBLfOIWW426ggcc1956/vwOuvv4XczEzcTc2eOGkimjtjePSvc/Dks6+hrYsOT143MjUdIQ6wiwQKSUNiXbZRwZlSLbI9Z9ia66LUzmQyzMfJNinciWI6Qd/99iU4cnA3NLQEcf9D06mBC9Ac5RSQVeQsediK6JJM5mh2FKhN4eiQVJrP45gcMk4jvhQ6Y5ms68PeulYsXv4BNmzZjfxuRehXno1JowZwasnHlk2c15uaKSwBRIiXmK2ePDT1oWCIsRcFeUVo4XJzydJl2LZ1J3r36I7y/EyMO3wCp6g0vPfeu9iydTv9igacOO0k4igMqdOOTTdQjmHNHwf7D/HUAZZVXpz0FieWPSQMlxY7ywln3hZ+0hiZyXWbNuJ79EZbW1pxxdcuxbU3fJsMTcKrczfg6ZfeQihJWp1pjA6rHS3jbBuJCNpAHYbIwzcSsJxYE9WxlwQRczqbcMmZJ+C0w/uag/fgYy/grTmLaWoLuB7LpfA4OBmzZb/VsDLYhphswCnDzqs7A+GvvrRz56dgBeChhams2Y3Z899BCpdXh/Xujv69SxDwZ9AT30JHMARw+ScX1Us8U9i0n2NlbXr1NMk+H5mbjlou+1auWIp+gwchPzsDE8YfznaruNpYhJ07d3EpOAF9evfl9KKdQIeiwpvoGt4WC4Sr0m6+km7MH5l3xTpWK278L4OryRYzuMxXePnFl2gWq9CtMB8Xk+Feas3WPZ3468tvoLlLFEmjuaUJ1KA4gmQy26vAwZiesC0LJgzqTAPhj5ZEwSBa6+swYkhfnHH0SGgD85nXFtCbfpfTADVThGY97UMahkpTcyVPYrXaVJPO1KNAPJjWGOR589eCysjGRHjeE8jGXk7k//vwX3D/jNnooLyddcJoXPf1c1CQSjMcaaOgcA6HHEIyTBpqnZPUUQ+tBYUhkIU9dS24/9EnsblyrxDDOeddgNz8XFqBFqxe4yzdhIfhLNw4XiXVlsUCtStw8xODst04IRwShhtS7FGxdp20DqY3aIx/e/Zsi48+5lgMHzXGhPKl1+dgw7ZqG7iYHWadGDU1ic5ZMrkqRkhzPdR2h9EarJwXpjlw+aw0nEiKBJHmT8KZJ08FV0CYv343nnrqOQRpSqO+NIRteKpv7CIesh4SGNFS+RIo9UVtJiNMoChmsZhjlmNKq5zVYxtMB8Ncc2eXIxooxWPPzcLdT72G2s4ITpw0CFdefDI8oXr4YmQ62lm+i5aI3jvrySIZjTjeKNv3Z+Vh8cq1+Osrb6GOa/vBh43AmLHjOQWEsWLVSoQiFBppdZyuScTR8GMz1pTA8CXEj50ePj4cQoYLKUero5x/PZTsXZW76bAts7zR4w7nksqPXbURzF2yDt6MXFvOyDO2wWgU5IT+jBnETIM1DbMDB121JS8WsSDQ1Y7xIwZh6IACVFPTXnl7CZpoNfw5xfSmnXle9VVXeipGK4iJ/OG/iMhzbNMIon5VI46PBZ7TSZ2zMTIv1MV2k/MQ9hXgudfexbNzlkI+26nHjcaJx41DR9NuCqJGwlUFOwyxfoT1xfQYl3FRCm+IAhZJTsXKNZuxpaaJS8IAho0Zzz5gF2naOjqM4cZs1VP/QtJBwwEdf0o4JAzXksmNnUuPJAiRlSNSW1OLAAfTl145scfcpWtQ3Uyb6JeDJtw1kPhgjMAJxHaD8vgndlBPqd+qGOaatgtTJoxBYUoytu2ux4oPNsIXyEcnnSy6XCxlCxlqL00xNVbzvwOKnX7FT3Vumsw/5bvMNUFm/8LRlkZWIokazHJdZHyMq/70Qvz5+Tfw1LxlVufCM47GwF7F6Gjdy3kf1O4IGcvph13GGIvpEdKmkwLqpe9S29SOaq5ePOyruKS7kEEnl3N2cUn4GS7sz2KCg5oD/zaGx3/3SSNj0WrF8hV0PCIoLMpHnz69Navhg03b0dwRpGl0zKvNnzYeh6hqTHXtWExgWo6UYpFegiSFD3d2ol9FDwzqU8S5FZj37ko6Pk0snM6pk557UgoZLEbTWzZzLRPNilqDGY7qxybzeH+6kCtaMsNSjmMYz7Rch/l0wjimVE4nLICwJw17g0n44/Ov4O1NO9GPTtg1V16MLH8quoJtXJ+rHmvR4jljlaAkkRbEiQ5eU3sQjc0d8DG/W1E39cJ2NfEJL1fE4rQRKIonDbdPCYeE4aYJYhDTWo4ZBXlUW1dv54uLS1BSUoyaziTUNAU5d6fyLIcsgktvVJcDdjTL6Oocc5BiusxiVLGVAVJ8XvbThT69ytA7P4C6lhCtyTKkpGTRZPIc1SmZGu6JcOnGAM6ZipN4jo0xlolnsD6c/iRFLi3NgeOfzjn9Cj8Rn0KhvGSqZ1KYzmUQ0WAr0tPSUb23DS+9Op/Mj+HIfuU4berRSG5tQ0pnFz12tmqNK3bGJafQ79X2sMeuHGrkudk5/CVTiIsspUNRUdKp+hE4WN4/gUPD8PhAFIvhHq0hme6iFgsKCgsQIFGaWyOoa25lWS52vA6Dbf4UQVnOGbYDluKPzphps7NsV8ShOU+lGR86sCeySZgtW2pRU9viunK2HIyZc6A24nOyBdYX8Qm2plffrOGUIyncpOqrJRNECRwdUcVWj04YjURIxoJC6+VxjKuFQGoulq7YjncW7bbxHDdxPAaV9wBam+HnscTJFEOd0JrYko1HitP9jrB1hjr4C6SRVj4uAYWqWU3VVb1DAIeE4UZCIWYDopkjZYSotgwFubk5XKsG0N7RzrUqGR4LIYVE05YpqeMQV004LRlYij8arMMkS1leR1sbsjPS0Kus0PpdtWYT2rrCtukRTuac6aHmeTgHesgMru9izJO3HKNWylvX8k99Clv1aWmeZ0eW5wgC9VlLKqM6PWvVoubpMMpjW11w2uD6j30FKACpdNG8ePlvs7C7LgkDS9Mw6cjh5sxxOYFkD1u0uhIb9hMOoaulBRl0ZPPSU6zfvXu5RCMUFBfR6QsQD0dxhJWN/RDAIWG4gUMpS2rtG2YySMkXZGRmG+JRLjUiwU4Wk3k03lkddyj/cEg84TgvHDrnt1BXJ/JzMylIuehgu7urquDxUV+YlikUn7QGjkSD9CHoINKj93ppgsn4GIXN9ubZnJhnYsSE07yIa90Q1IhDamFrWfpltq7+aTzamu3s7LBxtrZ1oI3CvG7dMsye/R7LxTBx/GHo3qOE57lM47Qk3NWf7fNxeRlmvfRUL7Lo1GrTqa7eYXhZ9zJaKfocKr+P4YcGDh3DiZiRj5GXRJdZlbkWeL00T0z7KO4+r2M6pZnSKg3G1r5W0vk9GIgpMrV2/Zlxt6IiFGanoDUURV0t174iYpDMbO1ApKUdSXSDyWM6bLrnrA1dnfV0ohqpYTKbWpcThJ+Yzbpy7Jw0QYPgOdeki3maUanXLBdCKi1HJqeUtoZKrgwbUZKXhYqSQgztX4H+/XujZm8V8Uqij5GDin7d0NGp6YYuKy2MxEe0sH18dpOZnob0jHRaC2DP7j3qHD2697AyunLmWhuHTv86HEKGCyEixkgapg0N3YYkSCaTHBCzZNY4GG2g7JtTXQl2fg8GaleMEMNlJQtzMpHNzKode7B39zakJLWiNDcJR43pi8sumIrvXH8qbvz2qfivb38F1111Oo46chQyUoJIDjWzN11xc7RNaIu47p86smOi4jiOwtEhlGIvrZM31IqktkocO3YIbrnxa7j1hnNw6/cuwq9+dDF+efPVOOecEyj0TjslhbmcUmi+w102OuuXjZkSUIOzs3Lo9KUhGEmye+jSM9PRvXt3w802pCR8qme1LfEvwSFhuOEgDTS04gTjsZ9LE4HmcpkmnzRfsyHTdJRZxdGqTzIKlTKNo9Srfl5uBmfMJHQ2N6C8OAeXX3Q6fvr9C/Bf156My88ahTMn9sNXxvXBqWP74PTJA/GdK07Ef99wGfpXlFHjdOFUQkftJz5s1IKtEsRkduaaeXPgZF5Nx3kcCSPbE8IVZx6HW64/D1+Z2BdH9MpFRVGKOWApAS+KCtJtzk5h3VKuTuR1hzkNqUF1paWlLo6EuoIoKsxHBuu0NDVj9eqVdudr99Jy0sehk5ARPYWLgQjxL8AhYbjLMjVmzLRRyVlz7iatkTNCCc/LzEQmzZfX6+xT2/LHRuIMStUEbpwIkgsLIj2XZZrDdVzEFcAtP74GXz11HEb1KIKfhF65uQbTZy7GnY++gPufm4V3VmzjHBnCsSN64IpLTidRc4ijHDh637QYNlWIsJJCHcvHkDkVg/gnYbXr8Tyn6eryc8/A174yhSsF4O0le3DL76bj5pvvx3/ffB+u+eHD+M6tj2DBKueOliCXZam+FLt/Tn1Kc/UnJfCQDv369kCAfWzdtAG1u3ehvKICZd1K7YYK28RSI/qxBOEgtPk0cMgYTpo4WsGEIUqu6dq3z5+GnTt2obq6hs5bMgrzc62MbIERkvVMgi0tYivttOuARiim6FczIJd0bF9ElL9bVtoN2RSkZZsb8esnFuCbN92F7/7odjz7wt9Q29CAjZvX46/Tp+P+B59EXWsrxg4sw8nHTqT8cZ5nf8561wGLJW0MthRkEHPcpaauew8aUIGjxo+wGyX+/PxiPP3cKxg6bCguuOhcfPVrl6C2JYIV63bAxzq06mhqpPmnyxDWPXAag1YnnNeCXV0oLihCrx7dqCTA6lWrKHBhjBw9kvN6BqeukIOb0YMFXJq4yH5GOGQm3egUZ5gypDXDSAjdSlxZWYmdeyoRIAWK8nMQ4ZKEJeO0dRjvaHhC2mmVQVRyRqs88w/Iann6grrGZtz3yBv47s8exhMvvYddDT40hNIwZMQY/PSmb+Bn37sKv/jZd5GTm40357wPbflMGFZOM+pHOMQ53RNfX1vrTo/Wq3AxKpPgxEcaGSXTBg/sgaI8H3bvbsTzM15DaY/emDx5EIYPyKdwJ6O9s5POKT3vrCyjR6vd/wa0U1iMcTbOqNGge/dylJcX2s2RCxa+j5T0gN1sqQq2o8hgDCcujBxwSPGZ4ZBpuMCQ0xGRk/nLzc9HYUEBmnRbcX0THR7Qu86mkyyHyXHeZEadYBn8lxerVmyCYGBJCYG0kcGvDWqZ3YjjvL27eC2emfEKajvb4c2mZgS4pvWmYnd1Mzbt0lxN7WLb7SEvFq1aj0quFKVVA3oWISmkCxTCRetyCRu7okQ5cycrGpGVL3MeRRo1L5/j0Tg301lsC8WwcPlG3HHva7jz4Tm476EX0djYZDdn5nDaaKfrXV/fSE3V+CSkHIM1TISoweXlBSjOTMHOqjosW/I+snKyMXr0KJ6N0t/xsqwQcMYulD4CrhB8CjgkDBc4NCJyTHu49BJR8jmAMaNGoa29FevXr7VCPUpLkBlINQnXjpvA1S07IjPNvLvMVuDpZNsPl7Oja8pai8tKaMfLB09GNlKy0hHkejucFLKt2w827MSP7ngc3/ufv+D2e57F39+cj4276xHULUYBD0rz6PSJ2RJSCZ5ZF6Go2Aazj+Fik1fbuVx/q19h10l8PP5MNLa24Y13FuCFV+Zg955qTjcpyKfjlZmRhqb2KOobmp02yXSbQtQ229HytILa7Wff61atxaZ1azHqsOEoKy61Gx90tVGWTcUtVuSQyYkFyvyUcMgYLiQ0MOEi9KgUlGxg7OHjjPkLFy4w/Ab26Y78/Gx0yWs1bZZzJA1zgnnK8bRpgoIGzKB2tOkigrTIRPKsz5+OJGq07Z3Tb/fEdOnSizDNak1DExas3IBFK1cj5g+gsT3EvBYjcveSfGvPlodEVLiKmsrjj1KmWcrTVqg8bVmf+qZWdDA/N78YSR4f+05BKpdWmdnZdoOk5t1spgNkWHNLqz0ypSdQ5HdoHOpGT6uUdyvCYUMGsPUkvDN7Djra23DeeefbeUNFnGbXiozp8SwN2uI4ahY+BVjbhwIMPxLKYsNCDAL69u1r53ds30bzVo/ybA897DTykYzWCXk2xuh4Gy6RDxiNY9ZofKkd5BIinFN11m5zSiKhdYFE++Fs1ZvsgcfnQ9TrRXpuLtKy8uile7kWTkJl9V6WSEIB53Rtftjmhv6sfwcJ+R/uHO6MJWZOmu6r31vbgjZOQTn5GUjn9CEhiNiUJOENm/nO5ZLRzzqt7R1o6Wg1IUjRDZedQWePn0MYNqg3epdmoK65C+++NxflpWU47eSTrbckWjETPA7H5E90MRp8OAjc+JPCIWO4wAhGzMyEGeZJGDxoMAqLirBp82Yyfatd9+3ZvYwOUIdtN2r+1KhUR+ZOOaxof9aYYo7KOSbCNOEqK2bprEy8poYoTbndC8f25BTZXTc819UVRXuHbjXSfWVAfW2DESk9Lcv2CchvHjuUlVkXyITLQxAu+jNLQEGLkXGbd9SgpbULPUv8GDGkH8hFlbD6yRIeltH96KpH9nLKIa52h6zzZIPuk0viEnH8mKFIZ52Vy5big1VLMW7saLsfnkNTaxyPUcb2K2iEnL1Bxjq/L2aw+FPAIWW4QRwhaaQIlV9UiCMnTUJlVTXWrXceLRrYv69zXcu0S6ZTdZzy7iVTx6THGzPpEWgOdFL28B1jrYttOacyybIUrKtjUklXyWToteEjFyjM+Ve3SqsJPxfRUVKTihmvTxYp5jmb05mWU2n46Y+VUtMysH3nDi71qm3tPG5YX3voIEmazfIK0vQ6mn1tGqfqOTROJbIOelRYexCd7U0Y2K8cgwf3QAcbnT3zdTp69TjnrLNEAqMBm9kX2AwTTlo4iPmuEOic6liZTwiHnuECIShSkYh66G7C4c6tO+8vWWIbHIP6lqGspAARaYfK8sdwtsGSaAqJo7GR61Ajde5zE+ZCXgSOhnQ/nNpx2lI9Ed/D8poxtCMXC5MF2lnTfgshLS1NswqLimHx/g1rRYyZ5+DFttQXNdPLaaKTfc1btBp1HTEM7l+Eim4FSA532g4czY0QQnNjG7pY15/q59TisYcvItpapYBHI2046ojRKONio6GuFq+++SpXDWU49oSphr8xnLgnBuHmxiKBGwssjqc/CXw+DI+DkNcFk1GjRppmLl+2DA2NjSgvCqBnWTdESAgtrQxnEVmFGCytXFFAJeKj06C1HeolEdNpjoV8e1ubEVRk4GmV2l+feaqqOVT3tmt5leonpQmpKQHzvAXmH1gqAZjhtKJ2HYEw54v1V6/fgvq2dhTm+nDUhDHwkOGSigjnaT3N0tbSgua2Tnv2PSszmxruOH1hTmPl3bIw4rDuSGH7c+fNxZKFC3Hu2aehoLBYcmpj1t05zvV5mf+4o8dYOO4LVjYe27g/GXzODJdpBioqdBWpFzZtWIfdVbXws9e+PXuZ1iVxPa3nuvTuFCOwjUb1NBqhxziB4Qppfh+yaR7VdmNLm93iZDf/WyxDL1BbTj0RXKZbDy549WgnQc+WyXPW48IuMQ+kmwRW7dh0wX/bWqVXvnPPXixeoo0kYMTQ3qjoyaUUHbowGaTHfFqaWxFs70QGC2Rw7Z5s9/hpORnE8MP6oV9pFjpoKaZPfwE+Cu/UaccbrrZiiAuXxcIrjptLg33goPZRpP8JHHKGu/0bPhxEKBylB1qOIyYciR07d2PDmrUI8OSwwb2RwfktGtYgHYmm8eQgjVUiM/P2mzE3ISalp6UiJ5PrbmY1tLSTial00EhsY5BTzyEbgYzWs2JhbdSQWdoF05mmFjpv1Hppv6YRZR5A0rjAOAR3ZIfkorcfpPWeOXc+mlpjGNo/B5MPH42Othb2wTmCzK3laqSjows5XvowuZlcc/u5/u+AP8WDKeOHIZ1tLVm9Aa/NeBlnnXUSJk463iyXCbQYzNiETbECe94XJwT9uPFHgsCNE+CQM1x0sXmIseZPPaHpo5d6eHwen/vuXHRyUAN75aGoKJ+OlG5pludNwvO8BivGKhK35JppzhbTTdMIfjIuS5s3TLd3hi12GCIPXcTSWB3hsW1MOk26UJFCPAoK8ozBDZxnVUqm2Iip9tXER0C50jb1kWQ3Kvhy87F8yw7MX7GT/gEwfuxg9O3Vne2GTPC6dDcLx+VjHcW6fbW9tRaDy7Mxtl8Pu2v17t/+huWCuOiiS2n6tXcuh5P9aIz0ypTe/ydGOaZ9XzBixcetjPjxvrTAjRNApw8pWL9CloTRMksXHcSEUaPGoiA/H7NmzuR6vAXZ2QH0Ki8mM0IIBNJZR+U0YJe49sPWRAhJPg9lBRjLIZMp1NkwzaCuLKmsTSFqIx6YaTdipNDZ0uXIFK7Z9fhuiHk7d9Y4gmD4EV8WZ9MfAjtWO+zUtN1BDG3U5M4UH2YvXIzK+hB6l2ViyuTx8CfpFR666OHsBqpOemYGghxjXlYAF06diFw6csvWrsVzTz+NyUcdjSlTppl268FBx3yrH+Eu7B1Q/BGexk9afLAgcOMEOOQMF5Ecc0Rt0Fo4jtHgwUNwxBETsHrFUrvQn+dJwuFj+9uNAp2djrbpz+4oZZ2Y3YGif4cIjvfuMFL3l0nerWVNzraYVqz//X8uk/x0zjrp3FX07IbuxV7sbe7Epu07EOySy+70o3AgfSRkxm8F+9Ow6HwFQ0hJTsGSZasxc8FqO3P0EcPZdj68kU5aJG2/smVWyKLjpjtbRx82mPP3UKjHxx97DLFQJ8484yx7lNgsosZstBKoJ/fXiT8S9OPGBwsCN06AQ87wDxPN6V1boalpAYwaPdo2JlYsWWzaNWxAGcrL8xEMNtMUkmEuhVnHcBUh3DSJYWkSvC3ItW4LPXyez03jOptVtDdvNZmnP2deZmCmtmOjHS04/sjRSOO5rTsqsa2qjnM+mSeBYRnrQ/XjsUCoOJbF6VvtawGcSmENBTvJvCT8/Y15WLqpHgNKfDh96uH0T4JIpabbViwrN3NVks6SJxw1BvkBH1ZSu1987jkMHjoMF150EXGTHyHHkf1ocS0E4ox3fp34I0E/bnywIHDjBDjkDBeYtHIE2g3z6m4Rap9u3Zs2bZq9duvF559BQ2s7yopz0LN3IS2B7vlyPHMjrSitGw7jc7Ko7jJSr72qb+3Eqs17bLAjBlRwPmc/OrevBZ6I4yAvvKWhDiOH9MdxR/SxNfnbK3dgZ00jkv1kv5pn+yZrwt0ZgoGhwUwJlpjupHUly7EaSR4/tlfW4J35H9DMgwI1lB54NnJSPSgtKUAzXXY9tz5lzCAcO6aP+RqPPfonVG/dhhtv+g4y07m0jF9oUvvCXn0aEkLGDQI3/hfhc2G4DSBOcLvcKAnmX58+fdG3TwVWLV+KFUsXIcuXjKEDuqOzq53zcJdpv7TCGKA/aonjzMkfcMy27pZpoyO4ZM1mtASTMG5oLwzsWUxGOLdEmwPGfl0cxCTN+VOPORKFrLt9Tzvmv78WnkAmkvWCPK6bbaqQjAhLlnfpbELAfGOCZSgmLmqbliGquZpMn/PeYmze0YB8fwznnzYNwwf0RF5mKrbuakY7l2hnn3KcvYpk6YpVeOqxR+05u6nHH0//QlTRH8dKRIW7xm5/8WP1qbFY34cAPlcNV6wg0FpY72SZOnWqvWpr1ptvmIc7fNgg9O7ZI37fG+tqhSZCcxllMYOsLlNEVnvkujXIi5XrtmLDtkpkpnlx4TmncolHTeHUIQ2WiDjMTrL1cUlRAQb0K7H5c/7iNdi+uwo+MlzMpgkwgqt9xcb4OH0dIVBQe+55iYWCrDvP+vzYWVWFF16ZjU6u144/YgDxOZlngbVrV2P0qMEYM6gcDU0tuPNX/4P6vTX45c9+jh5lJTY2tS9QWgey6s6lVCc4QuDE+rOy8fizwOfCcIHLaIGtdeMDuPDC85FGT3XR+4tQ29qMitI8DBncjwPVw3N0x6Tl9Fqd56E5MAYNzwRIW5M85+O6u76jE9NfeQf1bUFMHFKCi844BQFPKh0qPQJEtpO7manpSKEITBg/En165KAhGMQ7y5ba/nYS8+3tUBImUsGe7OSfmG0P/jFbboXAwYOTEnEycdIDY1xKRimd2jr1pPkxc/kyLNhRa0/EdC/KRnV9q73Y75gjR3HtDwr4LEx/5mmcfvpZOHLiEWgn3l10GnWRx64AklxyVnXzYpDLNS3ZzNNnv87YTewMHzf+LPC5M9yNxUhpee/eFThs+FAsX7Ec8+a+ixxSeEif3ghoLgt30HvlQFlOM7rdzhwPork8AT39ESah/WmZeGvBCjzy8rvW/ldOGIRvXX4OinPS0Fq3E0ldDQi3V8MTbsIRI7sjh8uvJev2YO3GTQj49SQpWzMnyfETdEFCmIrhUlyB0gLznpWnE2IAcdCWr4kiGeT3+9BCBv35pRnYS/9CUF9fi7HD+mJwj3w0t3Xg7nvvQbeSMmr5HfTMA0hL91s9H30BBRIKQY5dPo8eQtBTOurW1exDpeGH9B0viWBSSYxNOwhKh2ledUFB++tPPfVXeFNSccZpX0F2fg6WfbAZtdVkENka0nKOZlt1ZEqN2iSyvR5L86a1R++bWrplVxXNegb69S5Gn+6ZGNy/N9LS6PnG2lGzZwN6dMvE2Scfg6z0AB567Cls2riNFiaLU0fczZMwqR8TJ0f+ExmutA7lC1inxMOGRAE2QYnqHS5keiAFTWRyc10DRgzsi/KSfDqleWaj77jrXvzp4Qfw9cuuxSknn4Daqlp7m+SOnTuxnJZh3nvz8MSTj+OZ6dOxZv0qTj8DURh/sY91zqDr7kYP/onhn1XLuXqJc+Rzhn2M59/emmpMnDwJ7e2deG3WHA6wAn947h08Pv3v9nYmvfAnKUVzrDMse/uDOX5kC3miB/p8NO8hWsJgSwOuPHkcrr70ZKTJQWT5mlAUrbV12LJtKzJzczFkYD900Wrc9+AT2LWnBbtrOrCrthW+tGyKvM+u4MlZFFPVY6K2W9ry42Q2DXdGovV/NNoOr6+LPkEMLfXV6JOdjttuuh6DKwoRDUew4P0lmDTpOJbvQkFJb5QXFiKZjGxua6Wz2kXT3YH8wjzU1dehhh6/YNop0/DgHx5ESTHneXauN0Ha5V5NjfsxsbKfFr4QhqsLSae7+yRN+cmPfoRbb7sN995zN6697nqsq2zCz27/PSob2tDK1XJXknMTgUB1hKRpdoqXGpqKlkZqU1Mjzjl5Km64cDJ6pnsw8513sXH9Wpx51lkoysu1uoIQ533NXno7VEMwhBUbGvDMC7OxfusuRL2c9ykoekOD7pgxM8/+hKZA/WqelxetTSFjONP26DIZnowg5TKIzmgLhg/ui0tOnIqx/cuQ69cdNiHsojZPf36GvZG5rakZdDJMKPv164OBg/pj4IB+yC3IZdkuWr0ncMftd6Kd08Krr7+CaVNPNDPv01Mq/NPaXjT5f0LDBerKZf6SxYvttdI9upfh1ddeQ2l5Tzz83Bt45OkZiGaWoS3KNSqZYMPijzx03dwgNUzypKC5pR3HTDgMv/jaVLvzc80H63D++efZe01HDRmFSUdNQnlZObXlRAwY1BeRaCeaOjlfezIQ4Brp/U2tuPeBF7CNWhXzpdhVLkeTHQ0WUXRs2iyGq28KhL1FiieUr2nAkxRCa1MVRowZjKsuOw9HFgXQ0BXhCqIOhYXpKMlNt5cN6Yk23fPiXJw9ONTUV+KYKcdh9ao1eOX1v2Pa8SdRSLscDY8zXCyXf6P4s8DnNocfDFzZ0hKstFsJtm3bhtfeeBODadJHjx2P0tJCLFq2hlregeSMfBuYeeuaNykkmr394TY0VO/CUePG4ntfPwk9slOwk5p62TcuweKli5Hny8DW3Vsxb+F7dP7COOPMM5FObZ+zZD3uuO8hbNrZiG59KlBRlobmsBerV28SP8lQh4QKzpyuPP4ojqddrTK/wk7S3PqS4KMwnH/OiZg2sARVja249a5H8Ls/T8eSNduwtyMZtUEynJq6q6YNu+tasGtvE5Z/sBHz5y+wZvQueO33b9y4AXfffbc9PXrVt65CYUGhw2iackZkuDCI4xCPPy18oQx3QYzXFTRdK37ppRc50I04jc6bHhsKxryYv3I9gt4MvRLHiB+jk6fnsTknIFZfhePHDMP3rjwdffLT6JhV47orr8Brc2YZCcKRIDIzszD1pJPx+4cfQs8e5XhlZSV++cBL2FTZgA/opRcVcCnYr7u9w23eewu5DKJp5lLLvHFRVuRk0iUpLb4RWHmaU2V5rJjOcXXvIz9OnDIM/Qtz8cp7H+Avz72Mot79sId+xMKlKzDr3ffxtzfexZtvzsGrb8zBzNlvU0g3YfTwIRhx2BBkZaShqmonrrvuOqympbrm6qtw7jnncSy6kmgPFxsuNh3G0/ux+3Sg6eQLAyGsoBfca4l2xMSJOO/c87B81Wo88OCDXJIkYfLEUZgwZiRaancDna0IpHDFHOtCCk1nqK0BA3qX4esXnI3uhZmo3duA884+D6+9/gYmDh+Gs06egl/c8mM89uQTePDhB2kxumElNfoPDz5LsxtDQUFPmuQo9uzdSzObhDRvFxmox3i1DhYHZU0cQjpH8cAfaZpiZ13MMkrTKoTpOepGjgyaXUlEF52xjFQP6mhlosQ3wxNBTsCDgpwAKnr3pJk+Bldf/nX86uc/xOknHmvX9Zcvno9vXXE5Xnv1LQwZMhCXXvo1W9FICA0cPhsuAjf+LPCFz+HmgDEWw7XXvnDRIi5VTrZLnC/9/VVMPmI8lu1pw0/veRLrN6y33bmuUNiuqweo8Xf/8HqMHVKCutomfP87P0RrSyMuu+wbOOyw/sjI1bPWeaYRdVzRLKJm//HPL6JybztS/GnYs2s9Ro2owH/feCn6lGRj+dZa/Pi236G1i9rNuZ0zspA0povG0gaZe1crHELx1/5larlM7GpBli9CvC7BiD6lqGxqx86qGuykMOpl+XrJfyCQZtcQCnIzUMQ5PZ/dCGp278QTj9P8//4BLi8r0bdPbwr+AzjmmOM5Xn2vRTO+06uzPBUmB2L16eALZbjAupO0cm7WXK6bEn75y1/i5ptvxqhxE/Dscy+ge3kxFm1vwtN/fRFLliwx715vgfrqOWfgmOEV1PgIvvudH9kdLLf96ma7N60lHENlWzu27anB6g27MG/RBmzd3silj26kjCDcvhdjRgzCtZedjSFcr7cTjRXr9+CXd/4RrWHtmqUx0FcwLONm036cSPmKHVKT3Vqv0dbHQi3oWZCNO79zLvqV62nZeKWDgO6k7+rowO4du/Hnxx7GzDdexfylK+1cv97luOue+3DSKV+xmyFsW0dr7/hyVBi4Jn0/Np8evnCGi3nCVR5nOxkkZumVGWeccSZmznwLZ331MtzzmzvtQfqajhiWcA7UC+0HDxmMYeX51sYdN/8K9/7hfrz82gyMHHUY6ls68MqcxXhl1kwug/aiPZSMjlgKiRVARnYOSkrScOTYIThx4uHoX+C3W6NEs7VbGvHDW3+PlhB9BE+AfoKcQxI5zkyXsA5pxQCmEuZv7XlHO5swsl8P/Py6s1Gam4rnn30J23dsQq+KPsjIyEJ7uz6v0YCq6kps3rDJXmW2ccM65103hMz0dEw94TjcdNONnOKOslduJ3s1b7u9Ow4rGbXP8jj5nw3+PRoeB5l1gS5hrt9Ax+30M7Fx3WqccvrZ+OGPf4jxo0d+yHDtranFfb/+De657150cgr4r+//BD/++X8bAaqqGrGdXv/eujrUtrQiKTVABzCC7j1LMWhAX5RyrsxiuXnLVqG+thUnHj8BS9c04yd3PECGcx3u9dsGjLOF6ZBTPHeN536s6TgyU8T3ejlnN9fhqJGD8OMbz0EKp57Rw4di65YN8bIHh7yibnbVcPDgwTjxpBNw0rQT7F47abBWJroiqHv3zBgasx28HHb/ayz/whl+IKh7ab2Y/uZbM/Gtb16JLVu2oKJPP/PcR4wahTR/ii1ZZr7xBua/Nxd6gU9rezu9/Cx87Yqrcflll2L40IHxFg8O1Q11ePLZ6bj3zt9i3JHH45lH7sPbK2nSf/M42qjhUa7t3R23CImtlwGaQivwT2KgDOWJKTLr5As6G6px0qQxuPn6M1BfWYvhw4agvHspzj7nXApWLf0P5zlvraXzCgrQp28fdCspRfcePdC3t17tAbR2Bu32aefJG4HbuctWp3/XW//s7Ga9L5rhbneu8yYQw3Wzn75uMH/BAvzspz/FW2+9ZeeSSSgJg16Podd/vfDcc6iqrMSPb/6pPb4kKC2vwHHHHYuhQwehuKgQ5WXd6DDpocOIPb67ctUqzJ73NlauWYNQcysuufZGPHbvbzB/YzV+9qsH0RpMtldvad/MuVJG0mqDhVx3tjoEUeIp8+rmR+xOm1BzNS445Wh87+LjsHj5Gkw68gi7IvjIQw84tThGmx0OYJEeYdazatrB00OIFPs4U/UX53dcwASilPIVXKvzWeDfquGJXYvp+mRjCiVdH5J78cUXuW59E5vJVL2e6/DDD8eFF12IIYOHWPk9e/bYnP/Wm7Pw6muv2rfCHKdGQBMdETGTbUND/Rx+xJH2NYVZr7+KC795E/78+zuxYFMNfvI/v7PnvKOc76NcBonpuuxppN+nZY6G8QTLyeyS5LQEKVyDe4JNuPqSabiUU8RfX/o7zj/rNFx1zTW496679lkuM9VMCw+L1Tpxsy8eEMRAy5XZZp92exT/XFFz+/9/UsMPBBFAg1cssDkrzrgOerR2e7FeAkDQFSO9dFYP5tmXAghCX98d++CDD7Bjxw4TFoVamlNp+GGHHYYJEyZgFKeGu++7HzdcdzUuuvK/8MQDd2LRFi3L7rF75HTnil2Ng5dM1fIsfhcpu3HJ7N5A6byJicyJdCLXF8L3Lz8dU8cNxq/vuR/fu/Fa3HbbrfjB976PIM25Po2h+s7unFgmb1vNOdpLBkiO2C6PmbbxW29uv4qdY2n1/nOfDT6rZTgk4MragTLnaoPewqwLB2KcGE2qmFboJgjlKaisvjIgC3Duuefi2muvxS9+8Qv8/ve/xwMPPIBrqG1ittOHQ6ZYtMuI5vOIAXKOqG32MIQYw1KKWcK8cov1S+ChEYwZus1JW7cZgVTk5GYZ43bt3KGtfvTo3sthHNN2V60QtzoWMThtW8xCSuvP3m1nKTf+7Iz9R/BvZbirzf8ouIIgs6g7S3RvuW7607GsghtUzhWAMOdFN2idrw0d5Qvc9mI8FiG9bMveCimiy5wy0313nH2C2mWG5bOe6iqPtZnNcxQaThkBMl1Xzyp377Flpj6Gp76snjRc1kDjiSpODMLCaV+t7v9zj50+DyX8WxkucAbtxInpRDDiGROc2C3rBpsP40Jgd8oy6FjM0IMGylc5pQWsZczS8152YcZy2bb+1I/atX4cpqhfZ351+rfK/JcwicEZtDBtTFfXVMGX4jXnUvX448RuHbZvaeuO7VqfLmvVu/ObGAt01g0CN/4s8G9n+D6tE1ET0gIRyw1GnHjslj0w2HnGbl0H3Fjfn8m0OExvu1MM9AVYLj5XS6PVDudnu/1Js6rlO6Y4iXX0nhl7IZGu4DEvFA4hOzsLedmp9m3R+oZapGdk2kt9hIdezkf7oquqpDTxkI9m6DDBWCyVKybz7Yqig/1+pqq4VY+nBW78WcDp598ILmMUJ6YPhAPLHSy45z8MLun0wThtvegVWp1op6eUosdYyRiR2UhtzGVa3KRASNOd8wTTUmYzqbnWcTY99qXhLDKzqqoadXX19qlrvUkxopsuVF8VpM1MG24KyrR/J+38CZzfRHBK7A+Cj5b65PBvZ/jnD/sZLudO0NGmb5rS2Uujdol6Mc7pmmeN4Q5zxGb7FYPEdAkA/2z64MohFNSdKKkozM8xIanZW82l4V706VNh2q0/9W3Pw+lPefFgONl/4p97bKf+YRC48WeBLz/DE6iTbi/79aAzFERXsAsBb8w+7+y8841mVh41GSIWiYkCsUBrb7Uj5othJiN0CgOpqcil1VDJKjpswc4ODBrQXwXZBgXGbYtpO2a+Y4EY7D/xT8xwTHtiiJfeFwRu/FngS89wM8txyM3JgT+jEE1NjfZ9sBRqc0lhsfFZZBQrZbmVNuZaHuXANe9Gaq4I6P0HUvz2NGp5txIru27NasRoNUYNH2mM1tJRwmNMNmFRu4wdOdoHLnZu6y6TE5ktcON/Fb70DHc0ygHd6VJaXsrlU6V9fUCfoCgocm4j0hcTkmiq7fsq9idzTO5omRbV5ok45Zj+ZJl/lsjLTke/ihxaiyDWrloFf0oyRowYpposq/KspTbUpmLlHsBx90jxPwoCN/5X4cvPcJfQjNPTAyguLkbd3j2oqqxTLrr3LCcTos4636ctErJaTNElMdNspnmees20HpDQvfVeOn7N9iruPNbZvH0ntm/cgNKiYmRnZlHIVF/sJuPN2ZOWK1aTTmyB4PJfIvKPgsCN/1X4UjPcnKS4hkvTPVwzd+/VA+iqx9LlHyBIMg4Z1AvFRTlcYnUi2Ss9JstJlYiWVMZsPeQftmfeUtP9dPaCaOTyK4dLsWMnD0eA7b6/aCE2b9uBKUdORmFBkW3s6AOzZh3EUFmIfdzjz750QvwFwZea4TZ/xtNifprPhwF9etnx/DdfRltrGwYVpeLICSPRVFtlz3zHPF7qcBLCNMOR5DB5pXU01972Wk09A6rvnHTilBOPx5hBxdhe34K//OVpBOnEHT3laPhS0+xuGOdFRexXOJDrZuZNs/ljsbBIiL8g+NJruAtKe6m1ek5cl2EXvzcb786aiTTmnXfCRAwfXIHmpr1cpunyiNbYDEzTHaf/HkZ7SxN2bdti3zq98JzTcO6pY007n315BmbNfAPDBvXHpCmTzYKzsvVnAsfg7pU7jHZjYZUQf0HAKS6BKl8ycK/EaYhueteuXTj9jDOwdMkSnDjtBDz22J9QxHl91Y4qPDb9Fbw+bxnCSQF7sb/2vumHwUvm67PPw4cNxLFTxmPwoBLo7rUZc+fhyvPORlNlNR557GF8/dJvOC/ncdgrEyMCW2ycNWlQvhNZLOq7x18AfKkZrqE5GkaTGme69tlvv/12/PCHPyRDo7j88stwy623cR4vQlV7GHMXr8G6TdtQW9tkb4vq2b0Y3UuL0bt3dwwq1XdWgB1trZjx8kv42Q//G7XbduLrV3wD9951j30wVtSUYO1TXTHZZeyBzP03MFyE+NJCJBKxmIyOhcPhWCgUsrzm5ubY2Wef7bIgdsqpp8befHsuFfrjYcPG9bGHn3gydtq5Tl2vzxu78tvXxFraWlk3GguFQyyllPpk30oIBTcOx2M3CNz4C4L/KA1XWi/P0zX1PVWVuOHGG/DcX6db2aKSEpx55hmYePjhKOvRHYEUn3nYVTU12LRlM9atXYs5b8/Fpo2brPzosSNxzfXX4fxzzkWA5j8UCZmjppf4CnRTg6USNfxA+Ddo+Jea4S7IlJsDxbTmWD1NqrtomumI/eXJZ/DIww/Zw40CMUnbrempKQizXFNzGzqCzvtjSooLcdRRR+G0U0/DlGOORmlpKQWJAsVydsuy6qsfUlSXXeM5Vvf/FviP0fB9oDTzdHOE3X7E+VbfZJkzZ47dQ6dPdezcucsujvj9KRgwYCCGDx/BMAyDhw5FeVkPZGQ6H+Cz7VOC8/IhLb0E7JN/7q9dG/3/Gv7FQ6LHzvnczLouYepYT78kQktLiwmEvqx44DnjITVXN0nqFWJ2a7FRUCxmwpjIH+Z/4dz8BPAfwfDEISrtmnhXAFxQ2s13j93bo5TnWgubHoyhbh2ljN0fgf/b2P4fp+GKBYnMc0mQmHbBLZPIYPssVbyYU0fxgWT8pKx2y7j1P2m9zwb/d3kUXxCIaS5jExmcmE4Et7zLdDEjUQgc3uiHzI8HgZNW7ARBQm/xWGWVjre1L634YEHg+gsfzhUkpg8G/zEa7jLsXxmuW38/4z8MatllleufH8hOBxJLCg44uw9X51jdKf0PujX4aB8Hh/8Yhn8uQMo5uuYwb39Kmq1fWQEe84Ri55wT708pFjixc1u0LIpTKrG+Ezt1nNbdWh9uSaDjg8H/1/BPAfvqM3bW2g5hXW1Wy05wGKJUsluOscro/nXd9qRyBtZePGZLTh9yEO2sbf/SaVBTlucIwn6Ga+deV+v1ylE75s/HzdMfy/ADieSmFf8ngshgQ2fs3CQRPyBEIvTo99lx0omx895XBz5MModdDi3tMJ7LP+Wxltb4YS4f9dSpnhd3izm038/wLpZXvi+eb74j0zo6GBwSDXeFwG3qyysYRs195NYYFbQWF5EToZNFtaTz0qMXu3QfpLNmj9eNtxFhrNuftAEUf6OLgRaD+tqDGGhfbmADXkqPW1PCAI/HXnik+hIu3faufqTx2udz8U2EjzDcEIoj9mnBZbDbxpcJjBr7fjg2jdHUVywAgl0hdHZ22F69bqLQVwx9fp9959wYSdMspujb4Y4WiqE0yOIQD/RWiqbWIDo6nHe16oM4/hSfvapUn7wi7+EJBZGSLBPvYxUPOtlXUG+EJgRYRg8dqzUJn8UHgU9s0hUksW5eInMFbjldfnTTbpnPCm4bB/bxr7b7WSFKqmsNHglT47xJaAknYfX6bVi15H1s2rgBe2trEAy2wZPiJ6Ny0a28O0aNGYWRI4egKDsNPs3HxF3o67WcJBaqyN+Vqzdj5fLVWL95A5oaW6i42sFLht/vRd+Kvjh8zFCMGNwTRel+RENtFBovTb0fa7fvwlvvLsPI4SMwZpC+hRZ1fAYJlbFcdPswrQ6q4QeDT0rkf1Q/ERKZ+I/AEOa/yiX2/U/rxdv+R30cmP9JcDkQImR8czCC3z87F3+f8RJ65Xgx6cjxKCrMQ1rAg9bWEFo6gG076vH2goXoMbAC13/zAozrXoCgKU0SUmmf56/fjTuemI092zegf/cSDBnSH717FVODk9HQ0GHM37x+A1avXIpJ48fgkjOnom/PEp732AuK5y5fg5t+/D+49qqrcPEpE80M6EW/dluVeQ+uU7EfPtaku2nB3Llz8frrr9tOlYLe2KD9Zp1X0IdSdSXpiCOOMC0XuHUT2xG489fHgYuW6h2YTmzrQPhE59V3vMg/K++CSGd+WiyKDmrfK++uw62/fxLHThyJ7553DEoKcnhShay4QQPDq3PW4K7fPYgRQwfiv6+9GOW5Afte6qwFK3DrvY8iJacE1152AQ4f0tNunkyntdbt0zLxmsebO6JYvmw5nnz8KVrYZHz72mtw+PAe9qDE2++vwE9u/wO+cfnX8dVp4zmHa+4mdTkeh74HIET4MPsJByOq0osWLcLvfvc7NDc3G8PNaSCorI6XL19uz2f/9re/tfK6MKF8ty3FbtCtuonHBwtuHQmW+nLz7TtgcVC+e059acrRQN2yMUr8h87TjNq4+O+WcfvROdXXSwfc8m4ZK6fYiMk2Gc9csAS+9FycfPJJxuxwsAOhlnq0NXWiIxi2Bw1TYhGcPmUwTjn+OKxasQ5rNm+zD99u21WF3zz4JLKzcnDnj67GKaN6IiupCxnRLgRbOzhGKhLx9jEUcXI+4YhRuOH6qxBOycLNd/4BOytbDW+FCPHS60NIUmPvP4OPMFyDc2MFl2AiRq9evfDTn/4Ud955p70T9L777tsXpk+fjh/84Ae444478NbMt+xqlH3FP070YGcQ7e36tonItR81tz+BiKwyHe10fkJOv7pDVJbELbd792786Ec/wsqVK21v3L3iJUEwpvLY9TVc5rnByhIflROxFAsflXfbkTAKb719wsVXoN6tLsuwMhrqGux59bQ0P9r01STi6NNL+PTie82hHj2bHmS7URw5dpR9GKemtgUdbOO5V2ajPRjDt6+7HINLs+wFfvLAA9Tu3ADnbjpmqUkR+w6aJxKy8Y8dXIGLLjkXje1deOb5V9gucSFOEXtNifzzA3X54HBQhrtS715N0rGbFnHccomxnse++OKLUVJSgtdfe93qCAMhK0gNpNrDfPbaTWk/lxpuHwIRX2mVSUtPs+eu1aYuT2ot6pYRA9544w17pYf60DmLOY04z4N7LK223HyBjtWWCQXHIIFyyyronMpLGPWeGeGhoHPq0xESjpUCkUq8y/PTEWprpnC2Iz0lFd5AGjpDHFe4mWXaqKFJSPf6rc2h/Qrxs5/chKMnj8TqPS2YtWQtBvbviRH9yilEEaT69fiwjLEYp0UcvXwt5I09eoWXB20sd+z4fph69Cj6BQuwqboZMZ8foaQU++apCSTDP4OPMNwGzQElxi4kMlkEcEFp5ekTzboLRC+i07GIrGWFXry3Zs0aLF261O4aFZP0BKZbV0HEVx29xGfZsmVYsWIFqqqqkJqaagyQBquMYmleU3OT4dbY0GhCJcZIK9euXWv19aZmmWm1LTxMixnUrwRDAlVfV4/169fbY0du+ypbXV1tU9S6desMdxMk5kuCxXM/+508YgA66/dgxoszsHZbJed1MimQAS/xTabw6POa7R1kHQU7J8OLccN7oiTDj9Wb92BnUxTjRgxFjk9zrh548JiWkgoIxYPeNxOJppAmytdumiNow/vkoamzFZsrqxGjoOmdNBEKobjxSRjuiP8BcCDTBYol6W6+m+cGEUoEF5OGDh1qZaSFjzzyCBYuXLivjBhYVlaGyy67jF7pECOo7hN/4YUX8PzzzxtT3DbF2BEjRthbhnNycvDkk0/itddeMzM/4+UZmP/efM6hJ5uzqHPPPfec4eBqa48ePXD11VfbK8CUVtlf//rXKCwstHeg3nP3PdbfKaecYtOE3ur8xz/+EZs2bTJc1YbC+PHjcfnllyMrK8s0UkI0cfwInH7sRrz+5utYvWIZ+g0cjEED+6M0r4RzeiG6laYiP9txwBpjnNI6upAVCGBXTTOFwc/lVn+2o/ZFSCeWBZEAyMpoeSURIxmo/PpJ4rIriSuBDBOO3TV1qOjTCyF6es7tVBLHfw4HZXgiuMwViDGSdoE0yiWIQMyRw7Z9+3YjoJy7G264wV6yJ2L269cPgdSA5T/40IO48sorjfh6Gc/8+fPxk5/8BFdccYV95kpt6oU+mq/1kp6tW7fi8T8/bm9kEkOl/ePGjbM3Gapd+RD333+/tXn00UcbnmLK3/72N9x6662m8d/61reMiXrb0+zZs+3l/Ndff70Jn6YhabTqCx/5IhIKCYMswPe//33WW4177rnbrIDfn4q8zAB+fM1FNLFHYOHyD7B09QYsXbGBwhhAbn4eigtT0aPYj9HD+2P0uGHIJk56LElfOIqG5GXR6pCPXnJUFLS3kfC8mO28ecJRKJGXR/uYqdeOy8zrM5p6e4WcNjmUnxjY6IeAhNoXK9DU2fE999wTo5bEqJmxb37zm7FvfOMblqbkxy699NLY8OHDY3TqYn/5y1+s/O233x6jdsYoAHZ8IFxwwQWxiRMn2m3DdABjEyZMiJ/5MDz11FOxadOmxWii7ZgCFBszZkxs1qxZdszlYqy8vDz217/+1Y5dULuCZ599NkbrEHvggQdsPNT4GJeQsSVLlth5gcZ43HHHxShc8ZwPg/ocOXJU7NFHH91Hk462tn200t3HLaFobHNtW2zeB7tiD8+YG/vOr/8YO+/GX8WmXPKD2LHfuDl21zPvxhrC0djt0+fGKk64Mfb2B3WxDqIoPIUqnTC7ndnSbItCEYt2OXEXM5uj4Zg48daKlbFxZ18X+90L78Rmb6qODTjtu7G7X14W6xAewicacfAy1Nx4P3xkDj8QWMZimXOZX5nGPn362Efg+/bta+lBgwbhKi7+5amfd955dk/Yq6++ChLRyhMBq68grRHodVr19fWmvSNHjjQzKs9f86bmUL17TXD++eeDQmQaJy9ZOEjLXM/97bffNi099dRTbR5Wvvpw+znmmGMwcOBANDY2muVobW2113ipT5UXbqtXr7Z3vJ100kmWp7KyRAp655va1+ewX375ZSvvox+QSn9F7cmjDwe5pPImoSI/DROHlOFrpxyJW75zGX77q+/jR9+9nrTqiwcffQQvvL4YBdmFKM7LRDNXIpy84mZdWkpkTZvjVpUZVHTbvtUL+WWKQxxvc7uzhExJkamQlrMuLZeqG6esHf4oiHeK42dFr09s0kVIvbtcJjYvTw/aHBzUqBipeVbmVscKMqduWkFE1Lwsk3/88cfj5z//ud05KgaKqAIJ1bBhw+ybpXobI2valKK2xHSBhGvAgAHmG6hdF4S3BEx9ZGdn7/M/xFAXf/WjcmpDAvL444/b5pJwd4XT9eI1jfTvP8De3d7Y0oaVNPH99CmNHmVGWCqSMUsYmAPFJWEuZ79jhnZDn14X4tKV8zH3nXdxyqlnIY1rsA8o2MeMLeXcHrNXj+ilA6ocJzfrO9OlvWSILfp43ELmr9teQ3yS0a2kiFODPrCjN046fVv//HEuoTK4GYqVw/gTa7iILAJJ+sMkhojiapQbdCwktZxRPVdLDXEeSzvd9tSO5n33WBbioYcesnX+1772NWOyvP4HH3wQX//6100DNbeJCarjCoUcNPkN6lv5bns6L5yFg4Lrcwjc2CFwks358hk0/8v/OP0rp+Ocs8/BhRdcaBbrrLPO4vx9jwllCsuu2V6J3z72PP42Z5E1QqtrV8IcX1qWhQss9i1i07oi3xfGGFrBBq4oupdno6JnCeYvWoGG5hj9GqeM4STmMGgMNm9rm5QOn8bi4ammtiTMnbcIPbuX4PCBPRBqb+N6XV9vC5uT5ygzf/Rsu8TOaKHYCZwsPp7h1nECkURAV+ITg7TNjcUQaZCCHCS3npB2yyhPyzTl9e/f39bVereqvGD6Ajj99NPNydKL8yUEWmJpipCGS7BU39VwedCaFrQcUz8KOu/2K83UNCHh0Xhcp1PnXejWrZvh1rNnT5uGpp04DSdMOwHHTz3ejhXW0OzPe/ddEj6G1MxcNIQ9WLVtL2pCZBipre+iaZ8vRJKGxWj2FQzHL3GybJjOZoDOXllRBqZNnYQ1qz7Asy/NtFd7cZltz5RrK8XZLFJ9TUu0SlwVOMz34pU33sGmLbtx0tRjkZ/GpZ8sUCTIoOnNrcu2OCZNf5bmjxskWB/LcJewKhyOm0SXYAIRNDF2iahjLYdknmfMmGF5qidt1DkxUF619t21ezdr5izcdtttNr8eCImMUvtijDRW86uO1YbmZPUnwamrqzMTXVlZaeb53nvvtXZcy6DYtQ6ko42LTh/OPPNM3HLLLbY0OxAkbDfedJOtd0X+gf27YSTX0e8tWoI35q2kOSZDSad24tPJNjsoAFyCc51MutD8bqxswNrNm1HeXY8wJWHcqEE47eRj8PILz+KJp19Ga5CMYP0ufUuLTNKMrHfFaW/c4+VUlZSCZ2e/j+l/m42zzzoVRx85jkIltpI+nMuTKRQppKt4pXa0UaNYtNarxdzg0f7Hwb5q5DJOBFJa4Z133jGN/epXv4rMTOcFd245QWIdEVSOkky2GKvNFDFJSxwtlf73f//XnD0RWAwt71FuTFcfYpiCnDjt32vJJYbId1BZCc3MmTOtrHwFbfScc845pslyGrXlqnW//AHFcvr0ZInm8ilTpuCZZ56xdmRF5HCJSAoSGm0MCV8Jk6YcMV+OmvK+9a2r8K1vXoE2vf2J5YuLS7Bp83a8u2ARtT0VmTnZCHoCZLz2t+k/0BlrbO7AotU7cP8fHwWX4bj44nNRVpqFNOrM+HGHoa62ES+/9CI2b99j++Rp2Rnwp6YgkpyEtq4k1HeEsHxrFX77xKv43dOvw59TjOuuvQC9s7ksI7m37qrF4hUbEcjJQ4xj2lLZiK3VTdhS3YzNNU3YzPTWmkZsr27ATobK2nqafXEoAVwmu4xzGal16oYNG2xuFfGkKTonKXLLKciDlOkVEXUs5ogRmvM1t4th0soTTzzRPmMlM6Q2NA//+c9/Ng9d9VRe86ocP23ZyvFSn2pXeKhNMfzCCy/E6NGjDUfli+Eqp7W11u1y9s444wxMmjQJN954o1kBOXiTJ0+2LV57VbXwt+vcEdu8mTdvnlkb4aqrgPLeVV/tBkMRpKZw1iTOK7dU4onnZ2Lhmi2IetJQUFSMrLRUrrVJm3AXGmqr0bC3GgP698WZp5yAsSN7w6eJlqZVX3BqDUYx+41ZeHXmu9i9tx65BSUo69GLeMkZbUYrPflde2vhzS5B72Ej8P57izCoJ5l+yfEY2bsYS1Zvxa/ueYZTR4g40RJwHPaKMU4N4qo8fA/HqL07RDqRlaoHJD+G4YlpMcU978Y654JbLrGughgkEAOVdqcE16y6AuO2L3C9ZD3q44KI7ZZJ7FfmWxsoMuljx46N5+4HWQpdxdPmj5yvRFC/alfzndrWdqsLalfTh4RO4Pbv9M05m/OzPoHR1hXDtqpamuxd2LOnGh2dHRyntkbopWfncOnaCyMG9UE6mw6ZmWY/bCIYIdNl8dleVUM7Nm7dgc2c6pppCUMhLf3Yt9+Hom5l6NF/EL3yVLz5zib88aEHkZeRjlt/fCOKc1KwYWcN0aF/pGsKZI1xx8jkHAhdD89rc0b4/lMNd4nsHotpbhmFA8scCDqvcm4ZHaucSzy3LTffFRCBjhPbF6ishEEgJogpshaCxx57zJaOqiPQ1HAT515NLU899ZRNRRImaa7aEagPw8cuXuzvz+3TBELndSycSTweOQ41nSq9RkTsdUEUcFpOBPkOxIlzvbN9qhzSj0IR4Vra44m/D55BT6zK2kgwnNW1WiNmzNedLsvX7cKuHTsx+YgxyMnY7099UvjEGp4Ibr5LNEFiOhHcum58YDn3OLGPg5U9WDkxXoyQl65tWvkK8g3EWO3jaw7WGl1bpZoaxDwxVBdQRG4XNK0kHgtsXa2+2L69CUppxiplzOaPiYjQ4Y9ZUrUSb8byeZ7Gw6mnOjyvOm5zAlKXc76EiMIuUeA5Hak03TBFlqdOVU90CIeorT6Ki4SI/8JH39pT7JSNx/GE2tav4UECKncf6FCNKnbTB4Kb75ZzyyTWFRx4/rPAgW0K3OPEc2LkqlWrzBfQfrsshXYC5YwJpOVabx9oLRLbSQQjlc6pjM4xzUJGR620FUuvFatvt75rEeyIedJT7YS5Gyu6J07nrH2VYcqa5h9ZT/5Jz516DjilrIYjaY6VkdDa0ot55hewiCZt60d5bi2V1xjUSQz/Bx2GIcvXO0y8AAAAAElFTkSuQmCC;" vertex="1" parent="1">
          <mxGeometry x="938.17" y="203.5" width="63.66" height="57.5" as="geometry" />
        </mxCell>
        <mxCell id="KQhJbLYP4OwqPiLoFDpy-4" value="Team 1 schma" style="swimlane;whiteSpace=wrap;html=1;" vertex="1" parent="1">
          <mxGeometry x="884" y="333" width="170" height="74" as="geometry" />
        </mxCell>
        <mxCell id="CkYmVQg9glZ-AyzhZCAg-44" value="&lt;b&gt;&lt;font style=&quot;background-color: rgb(0, 0, 0);&quot; color=&quot;#ffffff&quot;&gt;Table 1&lt;/font&gt;&lt;/b&gt;" style="outlineConnect=0;dashed=0;verticalLabelPosition=bottom;verticalAlign=top;align=center;html=1;shape=mxgraph.aws3.search_documents;fillColor=#F58534;gradientColor=none;" parent="KQhJbLYP4OwqPiLoFDpy-4" vertex="1">
          <mxGeometry x="5" y="32.5" width="47.5" height="18.5" as="geometry" />
        </mxCell>
        <mxCell id="KQhJbLYP4OwqPiLoFDpy-5" value="&lt;b&gt;&lt;font style=&quot;background-color: rgb(0, 0, 0);&quot; color=&quot;#ffffff&quot;&gt;Table 2&lt;/font&gt;&lt;/b&gt;" style="outlineConnect=0;dashed=0;verticalLabelPosition=bottom;verticalAlign=top;align=center;html=1;shape=mxgraph.aws3.search_documents;fillColor=#F58534;gradientColor=none;" vertex="1" parent="1">
          <mxGeometry x="943" y="364.5" width="47.5" height="18.5" as="geometry" />
        </mxCell>
        <mxCell id="KQhJbLYP4OwqPiLoFDpy-6" value="&lt;b&gt;&lt;font style=&quot;background-color: rgb(0, 0, 0);&quot; color=&quot;#ffffff&quot;&gt;Table 3&lt;/font&gt;&lt;/b&gt;" style="outlineConnect=0;dashed=0;verticalLabelPosition=bottom;verticalAlign=top;align=center;html=1;shape=mxgraph.aws3.search_documents;fillColor=#F58534;gradientColor=none;" vertex="1" parent="1">
          <mxGeometry x="997" y="364.5" width="47.5" height="18.5" as="geometry" />
        </mxCell>
        <mxCell id="KQhJbLYP4OwqPiLoFDpy-12" value="Team 2 schma" style="swimlane;whiteSpace=wrap;html=1;" vertex="1" parent="1">
          <mxGeometry x="884" y="419" width="170" height="74" as="geometry" />
        </mxCell>
        <mxCell id="KQhJbLYP4OwqPiLoFDpy-13" value="&lt;b&gt;&lt;font style=&quot;background-color: rgb(0, 0, 0);&quot; color=&quot;#ffffff&quot;&gt;Table 1&lt;/font&gt;&lt;/b&gt;" style="outlineConnect=0;dashed=0;verticalLabelPosition=bottom;verticalAlign=top;align=center;html=1;shape=mxgraph.aws3.search_documents;fillColor=#F58534;gradientColor=none;" vertex="1" parent="KQhJbLYP4OwqPiLoFDpy-12">
          <mxGeometry x="5" y="32.5" width="47.5" height="18.5" as="geometry" />
        </mxCell>
        <mxCell id="KQhJbLYP4OwqPiLoFDpy-14" value="&lt;b&gt;&lt;font style=&quot;background-color: rgb(0, 0, 0);&quot; color=&quot;#ffffff&quot;&gt;Table 2&lt;/font&gt;&lt;/b&gt;" style="outlineConnect=0;dashed=0;verticalLabelPosition=bottom;verticalAlign=top;align=center;html=1;shape=mxgraph.aws3.search_documents;fillColor=#F58534;gradientColor=none;" vertex="1" parent="1">
          <mxGeometry x="943" y="450.5" width="47.5" height="18.5" as="geometry" />
        </mxCell>
        <mxCell id="KQhJbLYP4OwqPiLoFDpy-15" value="&lt;b&gt;&lt;font style=&quot;background-color: rgb(0, 0, 0);&quot; color=&quot;#ffffff&quot;&gt;Table 3&lt;/font&gt;&lt;/b&gt;" style="outlineConnect=0;dashed=0;verticalLabelPosition=bottom;verticalAlign=top;align=center;html=1;shape=mxgraph.aws3.search_documents;fillColor=#F58534;gradientColor=none;" vertex="1" parent="1">
          <mxGeometry x="999" y="449.5" width="47.5" height="18.5" as="geometry" />
        </mxCell>
        <mxCell id="CkYmVQg9glZ-AyzhZCAg-50" style="edgeStyle=orthogonalEdgeStyle;rounded=0;orthogonalLoop=1;jettySize=auto;html=1;entryX=0;entryY=0.5;entryDx=0;entryDy=0;" parent="1" source="CkYmVQg9glZ-AyzhZCAg-34" target="KQhJbLYP4OwqPiLoFDpy-12" edge="1">
          <mxGeometry relative="1" as="geometry">
            <mxPoint x="735.5" y="375.75" as="targetPoint" />
          </mxGeometry>
        </mxCell>
        <mxCell id="CkYmVQg9glZ-AyzhZCAg-52" style="edgeStyle=orthogonalEdgeStyle;rounded=0;orthogonalLoop=1;jettySize=auto;html=1;entryX=0;entryY=0.5;entryDx=0;entryDy=0;" parent="1" source="NJQEp5nP68rqL0rwDxV9-19" target="KQhJbLYP4OwqPiLoFDpy-4" edge="1">
          <mxGeometry relative="1" as="geometry">
            <mxPoint x="849.5" y="259.75" as="targetPoint" />
            <Array as="points">
              <mxPoint x="790" y="246" />
              <mxPoint x="790" y="370" />
            </Array>
          </mxGeometry>
        </mxCell>
        <mxCell id="KQhJbLYP4OwqPiLoFDpy-16" value="Team n schma" style="swimlane;whiteSpace=wrap;html=1;" vertex="1" parent="1">
          <mxGeometry x="886" y="501" width="170" height="74" as="geometry" />
        </mxCell>
        <mxCell id="KQhJbLYP4OwqPiLoFDpy-17" value="&lt;b&gt;&lt;font style=&quot;background-color: rgb(0, 0, 0);&quot; color=&quot;#ffffff&quot;&gt;Table 1&lt;/font&gt;&lt;/b&gt;" style="outlineConnect=0;dashed=0;verticalLabelPosition=bottom;verticalAlign=top;align=center;html=1;shape=mxgraph.aws3.search_documents;fillColor=#F58534;gradientColor=none;" vertex="1" parent="KQhJbLYP4OwqPiLoFDpy-16">
          <mxGeometry x="5" y="32.5" width="47.5" height="18.5" as="geometry" />
        </mxCell>
        <mxCell id="KQhJbLYP4OwqPiLoFDpy-18" value="&lt;b&gt;&lt;font style=&quot;background-color: rgb(0, 0, 0);&quot; color=&quot;#ffffff&quot;&gt;Table 2&lt;/font&gt;&lt;/b&gt;" style="outlineConnect=0;dashed=0;verticalLabelPosition=bottom;verticalAlign=top;align=center;html=1;shape=mxgraph.aws3.search_documents;fillColor=#F58534;gradientColor=none;" vertex="1" parent="1">
          <mxGeometry x="945" y="531.5" width="47.5" height="18.5" as="geometry" />
        </mxCell>
        <mxCell id="KQhJbLYP4OwqPiLoFDpy-19" value="&lt;b&gt;&lt;font style=&quot;background-color: rgb(0, 0, 0);&quot; color=&quot;#ffffff&quot;&gt;Table 3&lt;/font&gt;&lt;/b&gt;" style="outlineConnect=0;dashed=0;verticalLabelPosition=bottom;verticalAlign=top;align=center;html=1;shape=mxgraph.aws3.search_documents;fillColor=#F58534;gradientColor=none;" vertex="1" parent="1">
          <mxGeometry x="1001" y="530.5" width="47.5" height="18.5" as="geometry" />
        </mxCell>
        <mxCell id="CkYmVQg9glZ-AyzhZCAg-49" style="edgeStyle=orthogonalEdgeStyle;rounded=0;orthogonalLoop=1;jettySize=auto;html=1;entryX=0;entryY=0.5;entryDx=0;entryDy=0;" parent="1" source="CkYmVQg9glZ-AyzhZCAg-35" target="KQhJbLYP4OwqPiLoFDpy-16" edge="1">
          <mxGeometry relative="1" as="geometry">
            <mxPoint x="850" y="503.2605" as="targetPoint" />
          </mxGeometry>
        </mxCell>
      </root>
    </mxGraphModel>
  </diagram>
</mxfile>
